<?xml version="1.0" encoding="utf-8" standalone="no"?>
<!DOCTYPE svg PUBLIC "-//W3C//DTD SVG 1.1//EN"
  "http://www.w3.org/Graphics/SVG/1.1/DTD/svg11.dtd">
<svg xmlns:xlink="http://www.w3.org/1999/xlink" width="584.39952pt" height="512.39952pt" viewBox="0 0 584.39952 512.39952" xmlns="http://www.w3.org/2000/svg" version="1.1">
 <metadata>
  <rdf:RDF xmlns:dc="http://purl.org/dc/elements/1.1/" xmlns:cc="http://creativecommons.org/ns#" xmlns:rdf="http://www.w3.org/1999/02/22-rdf-syntax-ns#">
   <cc:Work>
    <dc:type rdf:resource="http://purl.org/dc/dcmitype/StillImage"/>
    <dc:date>2026-03-05T14:01:27.655921</dc:date>
    <dc:format>image/svg+xml</dc:format>
    <dc:creator>
     <cc:Agent>
      <dc:title>Matplotlib v3.10.8, https://matplotlib.org/</dc:title>
     </cc:Agent>
    </dc:creator>
   </cc:Work>
  </rdf:RDF>
 </metadata>
 <defs>
  <style type="text/css">*{stroke-linejoin: round; stroke-linecap: butt}</style>
 </defs>
 <g id="figure_1">
  <g id="patch_1">
   <path d="M 0 512.39952 
L 584.39952 512.39952 
L 584.39952 0 
L 0 0 
z
" style="fill: #ffffff"/>
  </g>
  <g id="axes_1">
   <g id="patch_2">
    <path d="M 43.78125 306.349672 
L 577.19952 306.349672 
L 577.19952 22.318125 
L 43.78125 22.318125 
z
" style="fill: #ffffff"/>
   </g>
   <g id="FillBetweenPolyCollection_1">
    <defs>
     <path id="m3e512078d8" d="M 140.95815 -477.17087 
L 75.91787 -477.17087 
L 72.381829 -475.377742 
L 69.86875 -473.584613 
L 68.441791 -471.791485 
L 68.027535 -469.998356 
L 68.459806 -468.205228 
L 69.533836 -466.412099 
L 71.051999 -464.618971 
L 72.850379 -462.825842 
L 74.805752 -461.032714 
L 76.829809 -459.239586 
L 78.859328 -457.446457 
L 80.848122 -455.653329 
L 82.762198 -453.8602 
L 84.576542 -452.067072 
L 86.271732 -450.273943 
L 87.830373 -448.480815 
L 89.235092 -446.687686 
L 90.469958 -444.894558 
L 91.525463 -443.101429 
L 92.40489 -441.308301 
L 93.128516 -439.515173 
L 93.73278 -437.722044 
L 94.263751 -435.928916 
L 94.766969 -434.135787 
L 95.277431 -432.342659 
L 95.813454 -430.54953 
L 96.37639 -428.756402 
L 96.955652 -426.963273 
L 97.536414 -425.170145 
L 98.106597 -423.377016 
L 98.660537 -421.583888 
L 99.198511 -419.79076 
L 99.723265 -417.997631 
L 100.235747 -416.204503 
L 100.73226 -414.411374 
L 101.204222 -412.618246 
L 101.640392 -410.825117 
L 102.030462 -409.031989 
L 102.368623 -407.23886 
L 102.65596 -405.445732 
L 102.901019 -403.652603 
L 103.118362 -401.859475 
L 103.32536 -400.066346 
L 103.53799 -398.273218 
L 103.766876 -396.48009 
L 104.014943 -394.686961 
L 104.27757 -392.893833 
L 104.545103 -391.100704 
L 104.806515 -389.307576 
L 105.052598 -387.514447 
L 105.277524 -385.721319 
L 105.478671 -383.92819 
L 105.655562 -382.135062 
L 105.80902 -380.341933 
L 105.941125 -378.548805 
L 106.05576 -376.755677 
L 106.158974 -374.962548 
L 106.258468 -373.16942 
L 106.362092 -371.376291 
L 106.47589 -369.583163 
L 106.602565 -367.790034 
L 106.741021 -365.996906 
L 106.887094 -364.203777 
L 107.034995 -362.410649 
L 107.1788 -360.61752 
L 107.313452 -358.824392 
L 107.435216 -357.031264 
L 107.541805 -355.238135 
L 107.632465 -353.445007 
L 107.70809 -351.651878 
L 107.771206 -349.85875 
L 107.825572 -348.065621 
L 107.875339 -346.272493 
L 107.923977 -344.479364 
L 107.973383 -342.686236 
L 108.023522 -340.893107 
L 108.072756 -339.099979 
L 108.118668 -337.306851 
L 108.159004 -335.513722 
L 108.192375 -333.720594 
L 108.218523 -331.927465 
L 108.238216 -330.134337 
L 108.252932 -328.341208 
L 108.264519 -326.54808 
L 108.274899 -324.754951 
L 108.285767 -322.961823 
L 108.298284 -321.168694 
L 108.31279 -319.375566 
L 108.328651 -317.582437 
L 108.344354 -315.789309 
L 108.35787 -313.996181 
L 108.36721 -312.203052 
L 108.371006 -310.409924 
L 108.368964 -308.616795 
L 108.362048 -306.823667 
L 108.35234 -305.030538 
L 108.342602 -303.23741 
L 108.335623 -301.444281 
L 108.333549 -299.651153 
L 108.542471 -299.651153 
L 108.542471 -299.651153 
L 108.540397 -301.444281 
L 108.533418 -303.23741 
L 108.52368 -305.030538 
L 108.513972 -306.823667 
L 108.507056 -308.616795 
L 108.505014 -310.409924 
L 108.50881 -312.203052 
L 108.51815 -313.996181 
L 108.531666 -315.789309 
L 108.547369 -317.582437 
L 108.56323 -319.375566 
L 108.577736 -321.168694 
L 108.590253 -322.961823 
L 108.601121 -324.754951 
L 108.611501 -326.54808 
L 108.623088 -328.341208 
L 108.637804 -330.134337 
L 108.657497 -331.927465 
L 108.683645 -333.720594 
L 108.717016 -335.513722 
L 108.757352 -337.306851 
L 108.803264 -339.099979 
L 108.852498 -340.893107 
L 108.902637 -342.686236 
L 108.952043 -344.479364 
L 109.000681 -346.272493 
L 109.050448 -348.065621 
L 109.104814 -349.85875 
L 109.16793 -351.651878 
L 109.243555 -353.445007 
L 109.334215 -355.238135 
L 109.440804 -357.031264 
L 109.562568 -358.824392 
L 109.69722 -360.61752 
L 109.841025 -362.410649 
L 109.988926 -364.203777 
L 110.134999 -365.996906 
L 110.273455 -367.790034 
L 110.40013 -369.583163 
L 110.513928 -371.376291 
L 110.617552 -373.16942 
L 110.717046 -374.962548 
L 110.82026 -376.755677 
L 110.934895 -378.548805 
L 111.067 -380.341933 
L 111.220458 -382.135062 
L 111.397349 -383.92819 
L 111.598496 -385.721319 
L 111.823422 -387.514447 
L 112.069505 -389.307576 
L 112.330917 -391.100704 
L 112.59845 -392.893833 
L 112.861077 -394.686961 
L 113.109144 -396.48009 
L 113.33803 -398.273218 
L 113.55066 -400.066346 
L 113.757658 -401.859475 
L 113.975001 -403.652603 
L 114.22006 -405.445732 
L 114.507397 -407.23886 
L 114.845558 -409.031989 
L 115.235628 -410.825117 
L 115.671798 -412.618246 
L 116.14376 -414.411374 
L 116.640273 -416.204503 
L 117.152755 -417.997631 
L 117.677509 -419.79076 
L 118.215483 -421.583888 
L 118.769423 -423.377016 
L 119.339606 -425.170145 
L 119.920368 -426.963273 
L 120.49963 -428.756402 
L 121.062566 -430.54953 
L 121.598589 -432.342659 
L 122.109051 -434.135787 
L 122.612269 -435.928916 
L 123.14324 -437.722044 
L 123.747504 -439.515173 
L 124.47113 -441.308301 
L 125.350557 -443.101429 
L 126.406062 -444.894558 
L 127.640928 -446.687686 
L 129.045647 -448.480815 
L 130.604288 -450.273943 
L 132.299478 -452.067072 
L 134.113822 -453.8602 
L 136.027898 -455.653329 
L 138.016692 -457.446457 
L 140.046211 -459.239586 
L 142.070268 -461.032714 
L 144.025641 -462.825842 
L 145.824021 -464.618971 
L 147.342184 -466.412099 
L 148.416214 -468.205228 
L 148.848485 -469.998356 
L 148.434229 -471.791485 
L 147.00727 -473.584613 
L 144.494191 -475.377742 
L 140.95815 -477.17087 
z
" style="stroke: #000000; stroke-width: 1.2"/>
    </defs>
    <g clip-path="url(#p4826ae5ebf)">
     <use xlink:href="#m3e512078d8" x="0" y="512.39952" style="fill: #ffffff; stroke: #000000; stroke-width: 1.2"/>
    </g>
   </g>
   <g id="FillBetweenPolyCollection_2">
    <defs>
     <path id="m56946564db" d="M 236.62196 -477.17087 
L 182.306435 -477.17087 
L 178.282412 -474.888707 
L 174.905723 -472.606543 
L 172.315099 -470.32438 
L 170.534609 -468.042216 
L 169.491695 -465.760053 
L 169.053723 -463.477889 
L 169.070325 -461.195726 
L 169.409813 -458.913562 
L 169.98167 -456.631399 
L 170.742012 -454.349235 
L 171.683657 -452.067072 
L 172.816312 -449.784908 
L 174.144371 -447.502745 
L 175.649493 -445.220581 
L 177.282621 -442.938418 
L 178.966692 -440.656254 
L 180.60824 -438.374091 
L 182.114329 -436.091927 
L 183.410788 -433.809764 
L 184.457906 -431.5276 
L 185.260123 -429.245437 
L 185.866877 -426.963273 
L 186.363206 -424.68111 
L 186.851165 -422.398946 
L 187.426134 -420.116783 
L 188.154419 -417.834619 
L 189.058773 -415.552456 
L 190.11613 -413.270292 
L 191.26779 -410.988129 
L 192.438058 -408.705965 
L 193.554924 -406.423802 
L 194.566483 -404.141638 
L 195.449325 -401.859475 
L 196.208364 -399.577311 
L 196.870242 -397.295148 
L 197.473389 -395.012984 
L 198.057424 -392.730821 
L 198.653731 -390.448657 
L 199.278585 -388.166494 
L 199.93017 -385.884331 
L 200.590587 -383.602167 
L 201.232795 -381.320004 
L 201.830544 -379.03784 
L 202.367695 -376.755677 
L 202.843201 -374.473513 
L 203.269821 -372.19135 
L 203.667504 -369.909186 
L 204.054755 -367.627023 
L 204.441778 -365.344859 
L 204.827768 -363.062696 
L 205.202484 -360.780532 
L 205.550518 -358.498369 
L 205.856331 -356.216205 
L 206.108761 -353.934042 
L 206.304468 -351.651878 
L 206.450003 -349.369715 
L 206.561958 -347.087551 
L 206.664493 -344.805388 
L 206.784145 -342.523224 
L 206.942932 -340.241061 
L 207.151909 -337.958897 
L 207.407578 -335.676734 
L 207.692659 -333.39457 
L 207.981023 -331.112407 
L 208.244986 -328.830243 
L 208.462423 -326.54808 
L 208.621547 -324.265916 
L 208.722341 -321.983753 
L 208.774888 -319.701589 
L 208.795633 -317.419426 
L 208.80289 -315.137262 
L 208.812726 -312.855099 
L 208.836027 -310.572935 
L 208.877173 -308.290772 
L 208.934385 -306.008608 
L 209.001447 -303.726445 
L 209.070236 -301.444281 
L 209.133297 -299.162118 
L 209.185761 -296.879954 
L 209.226136 -294.597791 
L 209.255883 -292.315627 
L 209.278095 -290.033464 
L 209.295878 -287.7513 
L 209.311093 -285.469137 
L 209.323905 -283.186973 
L 209.333196 -280.90481 
L 209.337553 -278.622646 
L 209.336304 -276.340483 
L 209.330109 -274.05832 
L 209.320866 -271.776156 
L 209.311021 -269.493993 
L 209.302669 -267.211829 
L 209.296905 -264.929666 
L 209.293745 -262.647502 
L 209.292616 -260.365339 
L 209.293091 -258.083175 
L 209.295429 -255.801012 
L 209.300609 -253.518848 
L 209.309834 -251.236685 
L 209.618561 -251.236685 
L 209.618561 -251.236685 
L 209.627786 -253.518848 
L 209.632966 -255.801012 
L 209.635304 -258.083175 
L 209.635779 -260.365339 
L 209.63465 -262.647502 
L 209.63149 -264.929666 
L 209.625726 -267.211829 
L 209.617374 -269.493993 
L 209.607529 -271.776156 
L 209.598286 -274.05832 
L 209.592091 -276.340483 
L 209.590842 -278.622646 
L 209.595199 -280.90481 
L 209.60449 -283.186973 
L 209.617302 -285.469137 
L 209.632517 -287.7513 
L 209.6503 -290.033464 
L 209.672512 -292.315627 
L 209.702259 -294.597791 
L 209.742634 -296.879954 
L 209.795098 -299.162118 
L 209.858159 -301.444281 
L 209.926948 -303.726445 
L 209.99401 -306.008608 
L 210.051222 -308.290772 
L 210.092368 -310.572935 
L 210.115669 -312.855099 
L 210.125505 -315.137262 
L 210.132762 -317.419426 
L 210.153507 -319.701589 
L 210.206054 -321.983753 
L 210.306848 -324.265916 
L 210.465972 -326.54808 
L 210.683409 -328.830243 
L 210.947372 -331.112407 
L 211.235736 -333.39457 
L 211.520817 -335.676734 
L 211.776486 -337.958897 
L 211.985463 -340.241061 
L 212.14425 -342.523224 
L 212.263902 -344.805388 
L 212.366437 -347.087551 
L 212.478392 -349.369715 
L 212.623927 -351.651878 
L 212.819634 -353.934042 
L 213.072064 -356.216205 
L 213.377877 -358.498369 
L 213.725911 -360.780532 
L 214.100627 -363.062696 
L 214.486617 -365.344859 
L 214.87364 -367.627023 
L 215.260891 -369.909186 
L 215.658574 -372.19135 
L 216.085194 -374.473513 
L 216.5607 -376.755677 
L 217.097851 -379.03784 
L 217.6956 -381.320004 
L 218.337808 -383.602167 
L 218.998225 -385.884331 
L 219.64981 -388.166494 
L 220.274664 -390.448657 
L 220.870971 -392.730821 
L 221.455006 -395.012984 
L 222.058153 -397.295148 
L 222.720031 -399.577311 
L 223.47907 -401.859475 
L 224.361912 -404.141638 
L 225.373471 -406.423802 
L 226.490337 -408.705965 
L 227.660605 -410.988129 
L 228.812265 -413.270292 
L 229.869622 -415.552456 
L 230.773976 -417.834619 
L 231.502261 -420.116783 
L 232.07723 -422.398946 
L 232.565189 -424.68111 
L 233.061518 -426.963273 
L 233.668272 -429.245437 
L 234.470489 -431.5276 
L 235.517607 -433.809764 
L 236.814066 -436.091927 
L 238.320155 -438.374091 
L 239.961703 -440.656254 
L 241.645774 -442.938418 
L 243.278902 -445.220581 
L 244.784024 -447.502745 
L 246.112083 -449.784908 
L 247.244738 -452.067072 
L 248.186383 -454.349235 
L 248.946725 -456.631399 
L 249.518582 -458.913562 
L 249.85807 -461.195726 
L 249.874673 -463.477889 
L 249.4367 -465.760053 
L 248.393786 -468.042216 
L 246.613296 -470.32438 
L 244.022672 -472.606543 
L 240.645983 -474.888707 
L 236.62196 -477.17087 
z
" style="stroke: #000000; stroke-width: 1.2"/>
    </defs>
    <g clip-path="url(#p4826ae5ebf)">
     <use xlink:href="#m56946564db" x="0" y="512.39952" style="fill: #ffffff; stroke: #000000; stroke-width: 1.2"/>
    </g>
   </g>
   <g id="FillBetweenPolyCollection_3">
    <defs>
     <path id="mb06ad75df8" d="M 325.104453 -477.17087 
L 295.876317 -477.17087 
L 293.286466 -474.834369 
L 290.755698 -472.497869 
L 288.357417 -470.161368 
L 286.138008 -467.824867 
L 284.114772 -465.488367 
L 282.279028 -463.151866 
L 280.603 -460.815365 
L 279.049092 -458.478864 
L 277.580339 -456.142364 
L 276.170852 -453.805863 
L 274.814637 -451.469362 
L 273.530771 -449.132862 
L 272.363006 -446.796361 
L 271.372957 -444.45986 
L 270.627819 -442.123359 
L 270.185349 -439.786859 
L 270.07991 -437.450358 
L 270.313075 -435.113857 
L 270.850941 -432.777357 
L 271.628408 -430.440856 
L 272.559103 -428.104355 
L 273.548731 -425.767854 
L 274.509461 -423.431354 
L 275.373101 -421.094853 
L 276.101034 -418.758352 
L 276.688975 -416.421851 
L 277.165098 -414.085351 
L 277.581158 -411.74885 
L 277.99808 -409.412349 
L 278.469551 -407.075849 
L 279.02839 -404.739348 
L 279.680103 -402.402847 
L 280.405701 -400.066346 
L 281.172448 -397.729846 
L 281.948091 -395.393345 
L 282.712906 -393.056844 
L 283.465093 -390.720344 
L 284.21816 -388.383843 
L 284.992529 -386.047342 
L 285.805776 -383.710841 
L 286.665951 -381.374341 
L 287.570275 -379.03784 
L 288.508579 -376.701339 
L 289.468626 -374.364839 
L 290.44005 -372.028338 
L 291.414979 -369.691837 
L 292.385668 -367.355336 
L 293.341204 -365.018836 
L 294.265815 -362.682335 
L 295.140359 -360.345834 
L 295.946847 -358.009334 
L 296.674378 -355.672833 
L 297.32413 -353.336332 
L 297.911421 -350.999831 
L 298.463837 -348.663331 
L 299.015772 -346.32683 
L 299.600765 -343.990329 
L 300.243672 -341.653829 
L 300.95475 -339.317328 
L 301.72717 -336.980827 
L 302.538585 -334.644326 
L 303.356275 -332.307826 
L 304.144484 -329.971325 
L 304.872037 -327.634824 
L 305.518324 -325.298324 
L 306.076263 -322.961823 
L 306.551733 -320.625322 
L 306.959974 -318.288821 
L 307.320246 -315.952321 
L 307.650446 -313.61582 
L 307.963191 -311.279319 
L 308.264232 -308.942819 
L 308.553193 -306.606318 
L 308.825862 -304.269817 
L 309.076888 -301.933316 
L 309.301912 -299.596816 
L 309.498584 -297.260315 
L 309.666555 -294.923814 
L 309.806874 -292.587314 
L 309.921316 -290.250813 
L 310.011968 -287.914312 
L 310.081096 -285.577811 
L 310.131146 -283.241311 
L 310.164686 -280.90481 
L 310.18423 -278.568309 
L 310.19204 -276.231809 
L 310.190054 -273.895308 
L 310.180027 -271.558807 
L 310.163846 -269.222306 
L 310.143836 -266.885806 
L 310.122867 -264.549305 
L 310.104161 -262.212804 
L 310.090856 -259.876304 
L 310.085492 -257.539803 
L 310.08962 -255.203302 
L 310.103657 -252.866801 
L 310.126982 -250.530301 
L 310.158178 -248.1938 
L 310.195303 -245.857299 
L 310.785467 -245.857299 
L 310.785467 -245.857299 
L 310.822592 -248.1938 
L 310.853788 -250.530301 
L 310.877113 -252.866801 
L 310.89115 -255.203302 
L 310.895278 -257.539803 
L 310.889914 -259.876304 
L 310.876609 -262.212804 
L 310.857903 -264.549305 
L 310.836934 -266.885806 
L 310.816924 -269.222306 
L 310.800743 -271.558807 
L 310.790716 -273.895308 
L 310.78873 -276.231809 
L 310.79654 -278.568309 
L 310.816084 -280.90481 
L 310.849624 -283.241311 
L 310.899674 -285.577811 
L 310.968802 -287.914312 
L 311.059454 -290.250813 
L 311.173896 -292.587314 
L 311.314215 -294.923814 
L 311.482186 -297.260315 
L 311.678858 -299.596816 
L 311.903882 -301.933316 
L 312.154908 -304.269817 
L 312.427577 -306.606318 
L 312.716538 -308.942819 
L 313.017579 -311.279319 
L 313.330324 -313.61582 
L 313.660524 -315.952321 
L 314.020796 -318.288821 
L 314.429037 -320.625322 
L 314.904507 -322.961823 
L 315.462446 -325.298324 
L 316.108733 -327.634824 
L 316.836286 -329.971325 
L 317.624495 -332.307826 
L 318.442185 -334.644326 
L 319.2536 -336.980827 
L 320.02602 -339.317328 
L 320.737098 -341.653829 
L 321.380005 -343.990329 
L 321.964998 -346.32683 
L 322.516933 -348.663331 
L 323.069349 -350.999831 
L 323.65664 -353.336332 
L 324.306392 -355.672833 
L 325.033923 -358.009334 
L 325.840411 -360.345834 
L 326.714955 -362.682335 
L 327.639566 -365.018836 
L 328.595102 -367.355336 
L 329.565791 -369.691837 
L 330.54072 -372.028338 
L 331.512144 -374.364839 
L 332.472191 -376.701339 
L 333.410495 -379.03784 
L 334.314819 -381.374341 
L 335.174994 -383.710841 
L 335.988241 -386.047342 
L 336.76261 -388.383843 
L 337.515677 -390.720344 
L 338.267864 -393.056844 
L 339.032679 -395.393345 
L 339.808322 -397.729846 
L 340.575069 -400.066346 
L 341.300667 -402.402847 
L 341.95238 -404.739348 
L 342.511219 -407.075849 
L 342.98269 -409.412349 
L 343.399612 -411.74885 
L 343.815672 -414.085351 
L 344.291795 -416.421851 
L 344.879736 -418.758352 
L 345.607669 -421.094853 
L 346.471309 -423.431354 
L 347.432039 -425.767854 
L 348.421667 -428.104355 
L 349.352362 -430.440856 
L 350.129829 -432.777357 
L 350.667695 -435.113857 
L 350.90086 -437.450358 
L 350.795421 -439.786859 
L 350.352951 -442.123359 
L 349.607813 -444.45986 
L 348.617764 -446.796361 
L 347.449999 -449.132862 
L 346.166133 -451.469362 
L 344.809918 -453.805863 
L 343.400431 -456.142364 
L 341.931678 -458.478864 
L 340.37777 -460.815365 
L 338.701742 -463.151866 
L 336.865998 -465.488367 
L 334.842762 -467.824867 
L 332.623353 -470.161368 
L 330.225072 -472.497869 
L 327.694304 -474.834369 
L 325.104453 -477.17087 
z
" style="stroke: #000000; stroke-width: 1.2"/>
    </defs>
    <g clip-path="url(#p4826ae5ebf)">
     <use xlink:href="#mb06ad75df8" x="0" y="512.39952" style="fill: #ffffff; stroke: #000000; stroke-width: 1.2"/>
    </g>
   </g>
   <g id="FillBetweenPolyCollection_4">
    <defs>
     <path id="m79b263f0a2" d="M 414.175486 -477.17087 
L 408.857659 -477.17087 
L 408.234327 -474.780032 
L 407.547608 -472.389194 
L 406.811721 -469.998356 
L 406.043742 -467.607518 
L 405.261118 -465.21668 
L 404.478774 -462.825842 
L 403.706522 -460.435005 
L 402.94744 -458.044167 
L 402.197669 -455.653329 
L 401.447622 -453.262491 
L 400.684183 -450.871653 
L 399.893164 -448.480815 
L 399.061251 -446.089977 
L 398.176964 -443.699139 
L 397.230584 -441.308301 
L 396.21349 -438.917463 
L 395.117645 -436.526625 
L 393.935961 -434.135787 
L 392.66398 -431.744949 
L 391.302712 -429.354111 
L 389.861883 -426.963273 
L 388.362427 -424.572435 
L 386.83698 -422.181597 
L 385.32757 -419.79076 
L 383.880463 -417.399922 
L 382.539052 -415.009084 
L 381.33645 -412.618246 
L 380.289697 -410.227408 
L 379.397228 -407.83657 
L 378.640322 -405.445732 
L 377.98815 -403.054894 
L 377.405003 -400.664056 
L 376.85768 -398.273218 
L 376.321144 -395.88238 
L 375.781189 -393.491542 
L 375.233955 -391.100704 
L 374.683104 -388.709866 
L 374.136149 -386.319028 
L 373.60145 -383.92819 
L 373.08696 -381.537352 
L 372.600898 -379.146514 
L 372.153697 -376.755677 
L 371.759955 -374.364839 
L 371.439069 -371.974001 
L 371.213699 -369.583163 
L 371.106098 -367.192325 
L 371.133235 -364.801487 
L 371.302298 -362.410649 
L 371.608151 -360.019811 
L 372.03381 -357.628973 
L 372.553972 -355.238135 
L 373.140668 -352.847297 
L 373.769434 -350.456459 
L 374.424321 -348.065621 
L 375.10051 -345.674783 
L 375.804075 -343.283945 
L 376.549216 -340.893107 
L 377.353853 -338.502269 
L 378.234684 -336.111432 
L 379.202769 -333.720594 
L 380.260447 -331.329756 
L 381.40004 -328.938918 
L 382.60449 -326.54808 
L 383.849696 -324.157242 
L 385.108031 -321.766404 
L 386.352328 -319.375566 
L 387.559552 -316.984728 
L 388.71352 -314.59389 
L 389.80627 -312.203052 
L 390.838045 -309.812214 
L 391.816104 -307.421376 
L 392.752772 -305.030538 
L 393.66313 -302.6397 
L 394.562689 -300.248862 
L 395.465301 -297.858024 
L 396.381437 -295.467187 
L 397.316994 -293.076349 
L 398.272685 -290.685511 
L 399.244106 -288.294673 
L 400.222443 -285.903835 
L 401.195719 -283.512997 
L 402.150389 -281.122159 
L 403.073019 -278.731321 
L 403.951792 -276.340483 
L 404.777597 -273.949645 
L 405.544555 -271.558807 
L 406.249929 -269.167969 
L 406.893525 -266.777131 
L 407.476789 -264.386293 
L 408.00192 -261.995455 
L 408.471252 -259.604617 
L 408.887076 -257.213779 
L 409.251888 -254.822942 
L 409.568851 -252.432104 
L 409.842204 -250.041266 
L 410.077366 -247.650428 
L 410.280603 -245.25959 
L 410.458338 -242.868752 
L 410.61632 -240.477914 
L 412.416825 -240.477914 
L 412.416825 -240.477914 
L 412.574807 -242.868752 
L 412.752542 -245.25959 
L 412.955779 -247.650428 
L 413.190941 -250.041266 
L 413.464294 -252.432104 
L 413.781257 -254.822942 
L 414.146069 -257.213779 
L 414.561893 -259.604617 
L 415.031225 -261.995455 
L 415.556356 -264.386293 
L 416.13962 -266.777131 
L 416.783216 -269.167969 
L 417.48859 -271.558807 
L 418.255548 -273.949645 
L 419.081353 -276.340483 
L 419.960126 -278.731321 
L 420.882756 -281.122159 
L 421.837426 -283.512997 
L 422.810702 -285.903835 
L 423.789039 -288.294673 
L 424.76046 -290.685511 
L 425.716151 -293.076349 
L 426.651708 -295.467187 
L 427.567844 -297.858024 
L 428.470456 -300.248862 
L 429.370015 -302.6397 
L 430.280373 -305.030538 
L 431.217041 -307.421376 
L 432.1951 -309.812214 
L 433.226875 -312.203052 
L 434.319625 -314.59389 
L 435.473593 -316.984728 
L 436.680817 -319.375566 
L 437.925114 -321.766404 
L 439.183449 -324.157242 
L 440.428655 -326.54808 
L 441.633105 -328.938918 
L 442.772698 -331.329756 
L 443.830376 -333.720594 
L 444.798461 -336.111432 
L 445.679292 -338.502269 
L 446.483929 -340.893107 
L 447.22907 -343.283945 
L 447.932635 -345.674783 
L 448.608824 -348.065621 
L 449.263711 -350.456459 
L 449.892477 -352.847297 
L 450.479173 -355.238135 
L 450.999335 -357.628973 
L 451.424994 -360.019811 
L 451.730847 -362.410649 
L 451.89991 -364.801487 
L 451.927048 -367.192325 
L 451.819446 -369.583163 
L 451.594076 -371.974001 
L 451.27319 -374.364839 
L 450.879448 -376.755677 
L 450.432247 -379.146514 
L 449.946185 -381.537352 
L 449.431695 -383.92819 
L 448.896996 -386.319028 
L 448.350041 -388.709866 
L 447.79919 -391.100704 
L 447.251956 -393.491542 
L 446.712001 -395.88238 
L 446.175465 -398.273218 
L 445.628142 -400.664056 
L 445.044995 -403.054894 
L 444.392823 -405.445732 
L 443.635917 -407.83657 
L 442.743448 -410.227408 
L 441.696695 -412.618246 
L 440.494093 -415.009084 
L 439.152682 -417.399922 
L 437.705575 -419.79076 
L 436.196165 -422.181597 
L 434.670718 -424.572435 
L 433.171262 -426.963273 
L 431.730433 -429.354111 
L 430.369165 -431.744949 
L 429.097184 -434.135787 
L 427.9155 -436.526625 
L 426.819655 -438.917463 
L 425.802561 -441.308301 
L 424.856181 -443.699139 
L 423.971894 -446.089977 
L 423.139981 -448.480815 
L 422.348962 -450.871653 
L 421.585523 -453.262491 
L 420.835476 -455.653329 
L 420.085705 -458.044167 
L 419.326623 -460.435005 
L 418.554371 -462.825842 
L 417.772027 -465.21668 
L 416.989403 -467.607518 
L 416.221424 -469.998356 
L 415.485537 -472.389194 
L 414.798818 -474.780032 
L 414.175486 -477.17087 
z
" style="stroke: #000000; stroke-width: 1.2"/>
    </defs>
    <g clip-path="url(#p4826ae5ebf)">
     <use xlink:href="#m79b263f0a2" x="0" y="512.39952" style="fill: #ffffff; stroke: #000000; stroke-width: 1.2"/>
    </g>
   </g>
   <g id="FillBetweenPolyCollection_5">
    <defs>
     <path id="m2b4fae420b" d="M 512.978662 -466.412099 
L 512.106858 -466.412099 
L 512.008346 -463.912587 
L 511.896487 -461.413075 
L 511.772472 -458.913562 
L 511.638827 -456.41405 
L 511.499135 -453.914537 
L 511.357299 -451.415025 
L 511.216426 -448.915513 
L 511.077604 -446.416 
L 510.938873 -443.916488 
L 510.794673 -441.416975 
L 510.635959 -438.917463 
L 510.450966 -436.417951 
L 510.226498 -433.918438 
L 509.949472 -431.418926 
L 509.608442 -428.919413 
L 509.194857 -426.419901 
L 508.703915 -423.920389 
L 508.13495 -421.420876 
L 507.491374 -418.921364 
L 506.780241 -416.421851 
L 506.011478 -413.922339 
L 505.196883 -411.422827 
L 504.348938 -408.923314 
L 503.479556 -406.423802 
L 502.598845 -403.92429 
L 501.714038 -401.424777 
L 500.828713 -398.925265 
L 499.942504 -396.425752 
L 499.051442 -393.92624 
L 498.149013 -391.426728 
L 497.227813 -388.927215 
L 496.281408 -386.427703 
L 495.30585 -383.92819 
L 494.300268 -381.428678 
L 493.266235 -378.929166 
L 492.206072 -376.429653 
L 491.120738 -373.930141 
L 490.008243 -371.430628 
L 488.863393 -368.931116 
L 487.679254 -366.431604 
L 486.450035 -363.932091 
L 485.174577 -361.432579 
L 483.859355 -358.933066 
L 482.520042 -356.433554 
L 481.181107 -353.934042 
L 479.873425 -351.434529 
L 478.630329 -348.935017 
L 477.482839 -346.435504 
L 476.454953 -343.935992 
L 475.559992 -341.43648 
L 474.798916 -338.936967 
L 474.161321 -336.437455 
L 473.629259 -333.937943 
L 473.183233 -331.43843 
L 472.808901 -328.938918 
L 472.502496 -326.439405 
L 472.273146 -323.939893 
L 472.141103 -321.440381 
L 472.132285 -318.940868 
L 472.270764 -316.441356 
L 472.571566 -313.941843 
L 473.035938 -311.442331 
L 473.650246 -308.942819 
L 474.3884 -306.443306 
L 475.216594 -303.943794 
L 476.098743 -301.444281 
L 477.00122 -298.944769 
L 477.896163 -296.445257 
L 478.763356 -293.945744 
L 479.591095 -291.446232 
L 480.376564 -288.946719 
L 481.125954 -286.447207 
L 481.854181 -283.947695 
L 482.583785 -281.448182 
L 483.342463 -278.94867 
L 484.159 -276.449157 
L 485.05785 -273.949645 
L 486.053355 -271.450133 
L 487.145103 -268.95062 
L 488.316063 -266.451108 
L 489.534624 -263.951595 
L 490.760606 -261.452083 
L 491.954025 -258.952571 
L 493.084325 -256.453058 
L 494.137462 -253.953546 
L 495.118776 -251.454034 
L 496.050809 -248.954521 
L 496.966791 -246.455009 
L 497.901782 -243.955496 
L 498.883988 -241.455984 
L 499.928513 -238.956472 
L 501.03485 -236.456959 
L 502.188195 -233.957447 
L 503.363589 -231.457934 
L 504.531328 -228.958422 
L 505.662077 -226.45891 
L 506.730565 -223.959397 
L 507.717478 -221.459885 
L 508.609757 -218.960372 
L 516.475763 -218.960372 
L 516.475763 -218.960372 
L 517.368042 -221.459885 
L 518.354955 -223.959397 
L 519.423443 -226.45891 
L 520.554192 -228.958422 
L 521.721931 -231.457934 
L 522.897325 -233.957447 
L 524.05067 -236.456959 
L 525.157007 -238.956472 
L 526.201532 -241.455984 
L 527.183738 -243.955496 
L 528.118729 -246.455009 
L 529.034711 -248.954521 
L 529.966744 -251.454034 
L 530.948058 -253.953546 
L 532.001195 -256.453058 
L 533.131495 -258.952571 
L 534.324914 -261.452083 
L 535.550896 -263.951595 
L 536.769457 -266.451108 
L 537.940417 -268.95062 
L 539.032165 -271.450133 
L 540.02767 -273.949645 
L 540.92652 -276.449157 
L 541.743057 -278.94867 
L 542.501735 -281.448182 
L 543.231339 -283.947695 
L 543.959566 -286.447207 
L 544.708956 -288.946719 
L 545.494425 -291.446232 
L 546.322164 -293.945744 
L 547.189357 -296.445257 
L 548.0843 -298.944769 
L 548.986777 -301.444281 
L 549.868926 -303.943794 
L 550.69712 -306.443306 
L 551.435274 -308.942819 
L 552.049582 -311.442331 
L 552.513954 -313.941843 
L 552.814756 -316.441356 
L 552.953235 -318.940868 
L 552.944417 -321.440381 
L 552.812374 -323.939893 
L 552.583024 -326.439405 
L 552.276619 -328.938918 
L 551.902287 -331.43843 
L 551.456261 -333.937943 
L 550.924199 -336.437455 
L 550.286604 -338.936967 
L 549.525528 -341.43648 
L 548.630567 -343.935992 
L 547.602681 -346.435504 
L 546.455191 -348.935017 
L 545.212095 -351.434529 
L 543.904413 -353.934042 
L 542.565478 -356.433554 
L 541.226165 -358.933066 
L 539.910943 -361.432579 
L 538.635485 -363.932091 
L 537.406266 -366.431604 
L 536.222127 -368.931116 
L 535.077277 -371.430628 
L 533.964782 -373.930141 
L 532.879448 -376.429653 
L 531.819285 -378.929166 
L 530.785252 -381.428678 
L 529.77967 -383.92819 
L 528.804112 -386.427703 
L 527.857707 -388.927215 
L 526.936507 -391.426728 
L 526.034078 -393.92624 
L 525.143016 -396.425752 
L 524.256807 -398.925265 
L 523.371482 -401.424777 
L 522.486675 -403.92429 
L 521.605964 -406.423802 
L 520.736582 -408.923314 
L 519.888637 -411.422827 
L 519.074042 -413.922339 
L 518.305279 -416.421851 
L 517.594146 -418.921364 
L 516.95057 -421.420876 
L 516.381605 -423.920389 
L 515.890663 -426.419901 
L 515.477078 -428.919413 
L 515.136048 -431.418926 
L 514.859022 -433.918438 
L 514.634554 -436.417951 
L 514.449561 -438.917463 
L 514.290847 -441.416975 
L 514.146647 -443.916488 
L 514.007916 -446.416 
L 513.869094 -448.915513 
L 513.728221 -451.415025 
L 513.586385 -453.914537 
L 513.446693 -456.41405 
L 513.313048 -458.913562 
L 513.189033 -461.413075 
L 513.077174 -463.912587 
L 512.978662 -466.412099 
z
" style="stroke: #000000; stroke-width: 1.2"/>
    </defs>
    <g clip-path="url(#p4826ae5ebf)">
     <use xlink:href="#m2b4fae420b" x="0" y="512.39952" style="fill: #ffffff; stroke: #000000; stroke-width: 1.2"/>
    </g>
   </g>
   <g id="matplotlib.axis_1">
    <g id="xtick_1">
     <g id="line2d_1">
      <defs>
       <path id="m96a005a0b3" d="M 0 0 
L 0 3.5 
" style="stroke: #000000; stroke-width: 0.8"/>
      </defs>
      <g>
       <use xlink:href="#m96a005a0b3" x="108.43801" y="306.349672" style="stroke: #000000; stroke-width: 0.8"/>
      </g>
     </g>
     <g id="text_1">
      <!-- Asset 0 -->
      <g transform="translate(89.95676 320.94811) scale(0.1 -0.1)">
       <defs>
        <path id="DejaVuSerif-41" d="M 1281 1691 
L 2994 1691 
L 2138 3909 
L 1281 1691 
z
M -38 0 
L -38 331 
L 372 331 
L 2034 4666 
L 2559 4666 
L 4225 331 
L 4684 331 
L 4684 0 
L 2988 0 
L 2988 331 
L 3506 331 
L 3116 1356 
L 1153 1356 
L 763 331 
L 1275 331 
L 1275 0 
L -38 0 
z
" transform="scale(0.015625)"/>
        <path id="DejaVuSerif-73" d="M 359 184 
L 359 959 
L 691 959 
Q 703 588 923 403 
Q 1144 219 1575 219 
Q 1963 219 2166 364 
Q 2369 509 2369 788 
Q 2369 1006 2220 1140 
Q 2072 1275 1594 1428 
L 1178 1569 
Q 750 1706 558 1912 
Q 366 2119 366 2438 
Q 366 2894 700 3153 
Q 1034 3413 1625 3413 
Q 1888 3413 2178 3344 
Q 2469 3275 2778 3144 
L 2778 2419 
L 2447 2419 
Q 2434 2741 2221 2922 
Q 2009 3103 1644 3103 
Q 1281 3103 1095 2975 
Q 909 2847 909 2591 
Q 909 2381 1050 2254 
Q 1191 2128 1613 1997 
L 2069 1856 
Q 2541 1709 2748 1489 
Q 2956 1269 2956 922 
Q 2956 450 2595 179 
Q 2234 -91 1600 -91 
Q 1278 -91 972 -22 
Q 666 47 359 184 
z
" transform="scale(0.015625)"/>
        <path id="DejaVuSerif-65" d="M 3469 1600 
L 991 1600 
L 991 1575 
Q 991 903 1244 561 
Q 1497 219 1991 219 
Q 2369 219 2611 417 
Q 2853 616 2950 1006 
L 3413 1006 
Q 3275 459 2904 184 
Q 2534 -91 1931 -91 
Q 1203 -91 761 389 
Q 319 869 319 1663 
Q 319 2450 753 2931 
Q 1188 3413 1894 3413 
Q 2647 3413 3050 2948 
Q 3453 2484 3469 1600 
z
M 2791 1931 
Q 2772 2513 2545 2808 
Q 2319 3103 1894 3103 
Q 1497 3103 1269 2806 
Q 1041 2509 991 1931 
L 2791 1931 
z
" transform="scale(0.015625)"/>
        <path id="DejaVuSerif-74" d="M 691 2988 
L 184 2988 
L 184 3322 
L 691 3322 
L 691 4353 
L 1269 4353 
L 1269 3322 
L 2350 3322 
L 2350 2988 
L 1269 2988 
L 1269 878 
Q 1269 456 1350 337 
Q 1431 219 1650 219 
Q 1875 219 1978 351 
Q 2081 484 2088 781 
L 2522 781 
Q 2497 328 2275 118 
Q 2053 -91 1600 -91 
Q 1103 -91 897 129 
Q 691 350 691 878 
L 691 2988 
z
" transform="scale(0.015625)"/>
        <path id="DejaVuSerif-20" transform="scale(0.015625)"/>
        <path id="DejaVuSerif-30" d="M 2034 219 
Q 2513 219 2750 744 
Q 2988 1269 2988 2328 
Q 2988 3391 2750 3916 
Q 2513 4441 2034 4441 
Q 1556 4441 1318 3916 
Q 1081 3391 1081 2328 
Q 1081 1269 1318 744 
Q 1556 219 2034 219 
z
M 2034 -91 
Q 1275 -91 848 546 
Q 422 1184 422 2328 
Q 422 3475 848 4112 
Q 1275 4750 2034 4750 
Q 2797 4750 3222 4112 
Q 3647 3475 3647 2328 
Q 3647 1184 3222 546 
Q 2797 -91 2034 -91 
z
" transform="scale(0.015625)"/>
       </defs>
       <use xlink:href="#DejaVuSerif-41"/>
       <use xlink:href="#DejaVuSerif-73" transform="translate(72.216797 0)"/>
       <use xlink:href="#DejaVuSerif-73" transform="translate(123.535156 0)"/>
       <use xlink:href="#DejaVuSerif-65" transform="translate(174.853516 0)"/>
       <use xlink:href="#DejaVuSerif-74" transform="translate(234.033203 0)"/>
       <use xlink:href="#DejaVuSerif-20" transform="translate(274.21875 0)"/>
       <use xlink:href="#DejaVuSerif-30" transform="translate(306.005859 0)"/>
      </g>
     </g>
    </g>
    <g id="xtick_2">
     <g id="line2d_2">
      <g>
       <use xlink:href="#m96a005a0b3" x="209.464198" y="306.349672" style="stroke: #000000; stroke-width: 0.8"/>
      </g>
     </g>
     <g id="text_2">
      <!-- Asset 5 -->
      <g transform="translate(190.982948 320.94811) scale(0.1 -0.1)">
       <defs>
        <path id="DejaVuSerif-35" d="M 3219 4666 
L 3219 4153 
L 1081 4153 
L 1081 2816 
Q 1244 2928 1461 2984 
Q 1678 3041 1947 3041 
Q 2703 3041 3140 2622 
Q 3578 2203 3578 1478 
Q 3578 738 3136 323 
Q 2694 -91 1894 -91 
Q 1572 -91 1234 -12 
Q 897 66 544 225 
L 544 1131 
L 897 1131 
Q 925 688 1179 453 
Q 1434 219 1894 219 
Q 2388 219 2653 544 
Q 2919 869 2919 1478 
Q 2919 2084 2655 2407 
Q 2391 2731 1894 2731 
Q 1613 2731 1398 2631 
Q 1184 2531 1019 2322 
L 750 2322 
L 750 4666 
L 3219 4666 
z
" transform="scale(0.015625)"/>
       </defs>
       <use xlink:href="#DejaVuSerif-41"/>
       <use xlink:href="#DejaVuSerif-73" transform="translate(72.216797 0)"/>
       <use xlink:href="#DejaVuSerif-73" transform="translate(123.535156 0)"/>
       <use xlink:href="#DejaVuSerif-65" transform="translate(174.853516 0)"/>
       <use xlink:href="#DejaVuSerif-74" transform="translate(234.033203 0)"/>
       <use xlink:href="#DejaVuSerif-20" transform="translate(274.21875 0)"/>
       <use xlink:href="#DejaVuSerif-35" transform="translate(306.005859 0)"/>
      </g>
     </g>
    </g>
    <g id="xtick_3">
     <g id="line2d_3">
      <g>
       <use xlink:href="#m96a005a0b3" x="310.490385" y="306.349672" style="stroke: #000000; stroke-width: 0.8"/>
      </g>
     </g>
     <g id="text_3">
      <!-- Asset 10 -->
      <g transform="translate(288.827885 320.94811) scale(0.1 -0.1)">
       <defs>
        <path id="DejaVuSerif-31" d="M 909 0 
L 909 331 
L 1722 331 
L 1722 4213 
L 781 3603 
L 781 4013 
L 1919 4750 
L 2350 4750 
L 2350 331 
L 3163 331 
L 3163 0 
L 909 0 
z
" transform="scale(0.015625)"/>
       </defs>
       <use xlink:href="#DejaVuSerif-41"/>
       <use xlink:href="#DejaVuSerif-73" transform="translate(72.216797 0)"/>
       <use xlink:href="#DejaVuSerif-73" transform="translate(123.535156 0)"/>
       <use xlink:href="#DejaVuSerif-65" transform="translate(174.853516 0)"/>
       <use xlink:href="#DejaVuSerif-74" transform="translate(234.033203 0)"/>
       <use xlink:href="#DejaVuSerif-20" transform="translate(274.21875 0)"/>
       <use xlink:href="#DejaVuSerif-31" transform="translate(306.005859 0)"/>
       <use xlink:href="#DejaVuSerif-30" transform="translate(369.628906 0)"/>
      </g>
     </g>
    </g>
    <g id="xtick_4">
     <g id="line2d_4">
      <g>
       <use xlink:href="#m96a005a0b3" x="411.516573" y="306.349672" style="stroke: #000000; stroke-width: 0.8"/>
      </g>
     </g>
     <g id="text_4">
      <!-- Asset 20 -->
      <g transform="translate(389.854073 320.94811) scale(0.1 -0.1)">
       <defs>
        <path id="DejaVuSerif-32" d="M 819 3553 
L 469 3553 
L 469 4384 
Q 803 4563 1142 4656 
Q 1481 4750 1806 4750 
Q 2534 4750 2956 4397 
Q 3378 4044 3378 3438 
Q 3378 2753 2422 1800 
Q 2347 1728 2309 1691 
L 1131 513 
L 3078 513 
L 3078 1088 
L 3444 1088 
L 3444 0 
L 434 0 
L 434 341 
L 1850 1753 
Q 2319 2222 2519 2614 
Q 2719 3006 2719 3438 
Q 2719 3909 2473 4175 
Q 2228 4441 1797 4441 
Q 1350 4441 1106 4219 
Q 863 3997 819 3553 
z
" transform="scale(0.015625)"/>
       </defs>
       <use xlink:href="#DejaVuSerif-41"/>
       <use xlink:href="#DejaVuSerif-73" transform="translate(72.216797 0)"/>
       <use xlink:href="#DejaVuSerif-73" transform="translate(123.535156 0)"/>
       <use xlink:href="#DejaVuSerif-65" transform="translate(174.853516 0)"/>
       <use xlink:href="#DejaVuSerif-74" transform="translate(234.033203 0)"/>
       <use xlink:href="#DejaVuSerif-20" transform="translate(274.21875 0)"/>
       <use xlink:href="#DejaVuSerif-32" transform="translate(306.005859 0)"/>
       <use xlink:href="#DejaVuSerif-30" transform="translate(369.628906 0)"/>
      </g>
     </g>
    </g>
    <g id="xtick_5">
     <g id="line2d_5">
      <g>
       <use xlink:href="#m96a005a0b3" x="512.54276" y="306.349672" style="stroke: #000000; stroke-width: 0.8"/>
      </g>
     </g>
     <g id="text_5">
      <!-- Asset 30 -->
      <g transform="translate(490.88026 320.94811) scale(0.1 -0.1)">
       <defs>
        <path id="DejaVuSerif-33" d="M 622 4469 
Q 988 4606 1323 4678 
Q 1659 4750 1953 4750 
Q 2638 4750 3022 4454 
Q 3406 4159 3406 3634 
Q 3406 3213 3140 2930 
Q 2875 2647 2388 2547 
Q 2963 2466 3280 2130 
Q 3597 1794 3597 1259 
Q 3597 606 3158 257 
Q 2719 -91 1894 -91 
Q 1528 -91 1179 -12 
Q 831 66 488 225 
L 488 1131 
L 838 1131 
Q 869 681 1141 450 
Q 1413 219 1906 219 
Q 2384 219 2661 495 
Q 2938 772 2938 1253 
Q 2938 1803 2653 2086 
Q 2369 2369 1819 2369 
L 1522 2369 
L 1522 2688 
L 1678 2688 
Q 2225 2688 2498 2914 
Q 2772 3141 2772 3597 
Q 2772 4006 2547 4223 
Q 2322 4441 1900 4441 
Q 1478 4441 1245 4241 
Q 1013 4041 972 3647 
L 622 3647 
L 622 4469 
z
" transform="scale(0.015625)"/>
       </defs>
       <use xlink:href="#DejaVuSerif-41"/>
       <use xlink:href="#DejaVuSerif-73" transform="translate(72.216797 0)"/>
       <use xlink:href="#DejaVuSerif-73" transform="translate(123.535156 0)"/>
       <use xlink:href="#DejaVuSerif-65" transform="translate(174.853516 0)"/>
       <use xlink:href="#DejaVuSerif-74" transform="translate(234.033203 0)"/>
       <use xlink:href="#DejaVuSerif-20" transform="translate(274.21875 0)"/>
       <use xlink:href="#DejaVuSerif-33" transform="translate(306.005859 0)"/>
       <use xlink:href="#DejaVuSerif-30" transform="translate(369.628906 0)"/>
      </g>
     </g>
    </g>
   </g>
   <g id="matplotlib.axis_2">
    <g id="ytick_1">
     <g id="line2d_6">
      <defs>
       <path id="m2cffb91651" d="M 0 0 
L -3.5 0 
" style="stroke: #000000; stroke-width: 0.8"/>
      </defs>
      <g>
       <use xlink:href="#m2cffb91651" x="43.78125" y="29.849265" style="stroke: #000000; stroke-width: 0.8"/>
      </g>
     </g>
     <g id="text_6">
      <!-- 0 -->
      <g transform="translate(30.41875 33.648483) scale(0.1 -0.1)">
       <use xlink:href="#DejaVuSerif-30"/>
      </g>
     </g>
    </g>
    <g id="ytick_2">
     <g id="line2d_7">
      <g>
       <use xlink:href="#m2cffb91651" x="43.78125" y="83.643118" style="stroke: #000000; stroke-width: 0.8"/>
      </g>
     </g>
     <g id="text_7">
      <!-- 10 -->
      <g transform="translate(24.05625 87.442337) scale(0.1 -0.1)">
       <use xlink:href="#DejaVuSerif-31"/>
       <use xlink:href="#DejaVuSerif-30" transform="translate(63.623047 0)"/>
      </g>
     </g>
    </g>
    <g id="ytick_3">
     <g id="line2d_8">
      <g>
       <use xlink:href="#m2cffb91651" x="43.78125" y="137.436972" style="stroke: #000000; stroke-width: 0.8"/>
      </g>
     </g>
     <g id="text_8">
      <!-- 20 -->
      <g transform="translate(24.05625 141.236191) scale(0.1 -0.1)">
       <use xlink:href="#DejaVuSerif-32"/>
       <use xlink:href="#DejaVuSerif-30" transform="translate(63.623047 0)"/>
      </g>
     </g>
    </g>
    <g id="ytick_4">
     <g id="line2d_9">
      <g>
       <use xlink:href="#m2cffb91651" x="43.78125" y="191.230826" style="stroke: #000000; stroke-width: 0.8"/>
      </g>
     </g>
     <g id="text_9">
      <!-- 30 -->
      <g transform="translate(24.05625 195.030044) scale(0.1 -0.1)">
       <use xlink:href="#DejaVuSerif-33"/>
       <use xlink:href="#DejaVuSerif-30" transform="translate(63.623047 0)"/>
      </g>
     </g>
    </g>
    <g id="ytick_5">
     <g id="line2d_10">
      <g>
       <use xlink:href="#m2cffb91651" x="43.78125" y="245.024679" style="stroke: #000000; stroke-width: 0.8"/>
      </g>
     </g>
     <g id="text_10">
      <!-- 40 -->
      <g transform="translate(24.05625 248.823898) scale(0.1 -0.1)">
       <defs>
        <path id="DejaVuSerif-34" d="M 2234 1581 
L 2234 4063 
L 641 1581 
L 2234 1581 
z
M 3609 0 
L 1484 0 
L 1484 331 
L 2234 331 
L 2234 1247 
L 197 1247 
L 197 1588 
L 2241 4750 
L 2859 4750 
L 2859 1581 
L 3750 1581 
L 3750 1247 
L 2859 1247 
L 2859 331 
L 3609 331 
L 3609 0 
z
" transform="scale(0.015625)"/>
       </defs>
       <use xlink:href="#DejaVuSerif-34"/>
       <use xlink:href="#DejaVuSerif-30" transform="translate(63.623047 0)"/>
      </g>
     </g>
    </g>
    <g id="ytick_6">
     <g id="line2d_11">
      <g>
       <use xlink:href="#m2cffb91651" x="43.78125" y="298.818533" style="stroke: #000000; stroke-width: 0.8"/>
      </g>
     </g>
     <g id="text_11">
      <!-- 50 -->
      <g transform="translate(24.05625 302.617752) scale(0.1 -0.1)">
       <use xlink:href="#DejaVuSerif-35"/>
       <use xlink:href="#DejaVuSerif-30" transform="translate(63.623047 0)"/>
      </g>
     </g>
    </g>
    <g id="text_12">
     <!-- Posterior Rank (1 = highest risk) -->
     <g transform="translate(17.834375 248.117493) rotate(-90) scale(0.1 -0.1)">
      <defs>
       <path id="DejaVuSerif-50" d="M 1581 2375 
L 2406 2375 
Q 2872 2375 3115 2626 
Q 3359 2878 3359 3353 
Q 3359 3831 3115 4081 
Q 2872 4331 2406 4331 
L 1581 4331 
L 1581 2375 
z
M 353 0 
L 353 331 
L 947 331 
L 947 4331 
L 353 4331 
L 353 4666 
L 2559 4666 
Q 3259 4666 3668 4311 
Q 4078 3956 4078 3353 
Q 4078 2753 3668 2397 
Q 3259 2041 2559 2041 
L 1581 2041 
L 1581 331 
L 2303 331 
L 2303 0 
L 353 0 
z
" transform="scale(0.015625)"/>
       <path id="DejaVuSerif-6f" d="M 1925 219 
Q 2388 219 2623 584 
Q 2859 950 2859 1663 
Q 2859 2375 2623 2739 
Q 2388 3103 1925 3103 
Q 1463 3103 1227 2739 
Q 991 2375 991 1663 
Q 991 950 1228 584 
Q 1466 219 1925 219 
z
M 1925 -91 
Q 1200 -91 759 389 
Q 319 869 319 1663 
Q 319 2456 758 2934 
Q 1197 3413 1925 3413 
Q 2653 3413 3092 2934 
Q 3531 2456 3531 1663 
Q 3531 869 3092 389 
Q 2653 -91 1925 -91 
z
" transform="scale(0.015625)"/>
       <path id="DejaVuSerif-72" d="M 3059 3328 
L 3059 2497 
L 2728 2497 
Q 2713 2744 2591 2866 
Q 2469 2988 2234 2988 
Q 1809 2988 1582 2694 
Q 1356 2400 1356 1850 
L 1356 331 
L 2022 331 
L 2022 0 
L 263 0 
L 263 331 
L 781 331 
L 781 2994 
L 231 2994 
L 231 3322 
L 1356 3322 
L 1356 2731 
Q 1525 3078 1790 3245 
Q 2056 3413 2438 3413 
Q 2578 3413 2733 3391 
Q 2888 3369 3059 3328 
z
" transform="scale(0.015625)"/>
       <path id="DejaVuSerif-69" d="M 622 4353 
Q 622 4497 726 4603 
Q 831 4709 978 4709 
Q 1122 4709 1226 4603 
Q 1331 4497 1331 4353 
Q 1331 4206 1228 4103 
Q 1125 4000 978 4000 
Q 831 4000 726 4103 
Q 622 4206 622 4353 
z
M 1356 331 
L 1900 331 
L 1900 0 
L 231 0 
L 231 331 
L 781 331 
L 781 2988 
L 231 2988 
L 231 3322 
L 1356 3322 
L 1356 331 
z
" transform="scale(0.015625)"/>
       <path id="DejaVuSerif-52" d="M 3066 2316 
Q 3284 2256 3442 2114 
Q 3600 1972 3725 1716 
L 4403 331 
L 4972 331 
L 4972 0 
L 3872 0 
L 3144 1484 
Q 2934 1916 2759 2042 
Q 2584 2169 2278 2169 
L 1581 2169 
L 1581 331 
L 2241 331 
L 2241 0 
L 353 0 
L 353 331 
L 947 331 
L 947 4331 
L 353 4331 
L 353 4666 
L 2719 4666 
Q 3400 4666 3770 4341 
Q 4141 4016 4141 3419 
Q 4141 2938 3870 2661 
Q 3600 2384 3066 2316 
z
M 1581 2503 
L 2503 2503 
Q 2975 2503 3200 2726 
Q 3425 2950 3425 3419 
Q 3425 3888 3200 4109 
Q 2975 4331 2503 4331 
L 1581 4331 
L 1581 2503 
z
" transform="scale(0.015625)"/>
       <path id="DejaVuSerif-61" d="M 2547 1044 
L 2547 1747 
L 1806 1747 
Q 1378 1747 1168 1562 
Q 959 1378 959 997 
Q 959 650 1171 447 
Q 1384 244 1747 244 
Q 2106 244 2326 466 
Q 2547 688 2547 1044 
z
M 3122 2075 
L 3122 331 
L 3634 331 
L 3634 0 
L 2547 0 
L 2547 359 
Q 2356 128 2106 18 
Q 1856 -91 1522 -91 
Q 969 -91 644 203 
Q 319 497 319 997 
Q 319 1513 691 1797 
Q 1063 2081 1741 2081 
L 2547 2081 
L 2547 2309 
Q 2547 2688 2317 2895 
Q 2088 3103 1672 3103 
Q 1328 3103 1125 2947 
Q 922 2791 872 2484 
L 575 2484 
L 575 3156 
Q 875 3284 1158 3348 
Q 1441 3413 1709 3413 
Q 2400 3413 2761 3070 
Q 3122 2728 3122 2075 
z
" transform="scale(0.015625)"/>
       <path id="DejaVuSerif-6e" d="M 263 0 
L 263 331 
L 781 331 
L 781 2988 
L 231 2988 
L 231 3322 
L 1356 3322 
L 1356 2731 
Q 1516 3069 1770 3241 
Q 2025 3413 2363 3413 
Q 2913 3413 3172 3097 
Q 3431 2781 3431 2113 
L 3431 331 
L 3944 331 
L 3944 0 
L 2356 0 
L 2356 331 
L 2853 331 
L 2853 1931 
Q 2853 2541 2703 2767 
Q 2553 2994 2175 2994 
Q 1775 2994 1565 2701 
Q 1356 2409 1356 1850 
L 1356 331 
L 1856 331 
L 1856 0 
L 263 0 
z
" transform="scale(0.015625)"/>
       <path id="DejaVuSerif-6b" d="M 1831 0 
L 219 0 
L 219 331 
L 738 331 
L 738 4531 
L 184 4531 
L 184 4863 
L 1313 4863 
L 1313 1697 
L 2713 2988 
L 2234 2988 
L 2234 3322 
L 3738 3322 
L 3738 2988 
L 3169 2988 
L 2181 2075 
L 3444 331 
L 3922 331 
L 3922 0 
L 2284 0 
L 2284 331 
L 2759 331 
L 1766 1697 
L 1313 1275 
L 1313 331 
L 1831 331 
L 1831 0 
z
" transform="scale(0.015625)"/>
       <path id="DejaVuSerif-28" d="M 2041 -997 
Q 1281 -656 893 83 
Q 506 822 506 1931 
Q 506 3044 893 3783 
Q 1281 4522 2041 4863 
L 2041 4556 
Q 1559 4225 1350 3623 
Q 1141 3022 1141 1931 
Q 1141 844 1350 242 
Q 1559 -359 2041 -691 
L 2041 -997 
z
" transform="scale(0.015625)"/>
       <path id="DejaVuSerif-3d" d="M 678 2894 
L 4684 2894 
L 4684 2394 
L 678 2394 
L 678 2894 
z
M 678 1619 
L 4684 1619 
L 4684 1119 
L 678 1119 
L 678 1619 
z
" transform="scale(0.015625)"/>
       <path id="DejaVuSerif-68" d="M 263 0 
L 263 331 
L 781 331 
L 781 4531 
L 231 4531 
L 231 4863 
L 1356 4863 
L 1356 2731 
Q 1516 3069 1770 3241 
Q 2025 3413 2363 3413 
Q 2913 3413 3172 3097 
Q 3431 2781 3431 2113 
L 3431 331 
L 3944 331 
L 3944 0 
L 2356 0 
L 2356 331 
L 2853 331 
L 2853 1931 
Q 2853 2541 2704 2764 
Q 2556 2988 2175 2988 
Q 1775 2988 1565 2697 
Q 1356 2406 1356 1850 
L 1356 331 
L 1856 331 
L 1856 0 
L 263 0 
z
" transform="scale(0.015625)"/>
       <path id="DejaVuSerif-67" d="M 3359 2988 
L 3359 72 
Q 3359 -644 2965 -1033 
Q 2572 -1422 1844 -1422 
Q 1516 -1422 1216 -1362 
Q 916 -1303 641 -1184 
L 641 -488 
L 941 -488 
Q 997 -813 1206 -963 
Q 1416 -1113 1806 -1113 
Q 2313 -1113 2548 -827 
Q 2784 -541 2784 72 
L 2784 519 
Q 2616 206 2355 57 
Q 2094 -91 1709 -91 
Q 1097 -91 708 395 
Q 319 881 319 1663 
Q 319 2444 706 2928 
Q 1094 3413 1709 3413 
Q 2094 3413 2355 3264 
Q 2616 3116 2784 2803 
L 2784 3322 
L 3909 3322 
L 3909 2988 
L 3359 2988 
z
M 2784 1825 
Q 2784 2422 2554 2737 
Q 2325 3053 1888 3053 
Q 1444 3053 1217 2703 
Q 991 2353 991 1663 
Q 991 975 1217 622 
Q 1444 269 1888 269 
Q 2325 269 2554 583 
Q 2784 897 2784 1497 
L 2784 1825 
z
" transform="scale(0.015625)"/>
       <path id="DejaVuSerif-29" d="M 453 -997 
L 453 -691 
Q 934 -359 1145 242 
Q 1356 844 1356 1931 
Q 1356 3022 1145 3623 
Q 934 4225 453 4556 
L 453 4863 
Q 1216 4522 1603 3783 
Q 1991 3044 1991 1931 
Q 1991 822 1603 83 
Q 1216 -656 453 -997 
z
" transform="scale(0.015625)"/>
      </defs>
      <use xlink:href="#DejaVuSerif-50"/>
      <use xlink:href="#DejaVuSerif-6f" transform="translate(63.285156 0)"/>
      <use xlink:href="#DejaVuSerif-73" transform="translate(123.490234 0)"/>
      <use xlink:href="#DejaVuSerif-74" transform="translate(174.808594 0)"/>
      <use xlink:href="#DejaVuSerif-65" transform="translate(214.994141 0)"/>
      <use xlink:href="#DejaVuSerif-72" transform="translate(274.173828 0)"/>
      <use xlink:href="#DejaVuSerif-69" transform="translate(321.976562 0)"/>
      <use xlink:href="#DejaVuSerif-6f" transform="translate(353.958984 0)"/>
      <use xlink:href="#DejaVuSerif-72" transform="translate(414.164062 0)"/>
      <use xlink:href="#DejaVuSerif-20" transform="translate(461.966797 0)"/>
      <use xlink:href="#DejaVuSerif-52" transform="translate(493.753906 0)"/>
      <use xlink:href="#DejaVuSerif-61" transform="translate(571.296875 0)"/>
      <use xlink:href="#DejaVuSerif-6e" transform="translate(630.916016 0)"/>
      <use xlink:href="#DejaVuSerif-6b" transform="translate(695.320312 0)"/>
      <use xlink:href="#DejaVuSerif-20" transform="translate(755.916016 0)"/>
      <use xlink:href="#DejaVuSerif-28" transform="translate(787.703125 0)"/>
      <use xlink:href="#DejaVuSerif-31" transform="translate(826.716797 0)"/>
      <use xlink:href="#DejaVuSerif-20" transform="translate(890.339844 0)"/>
      <use xlink:href="#DejaVuSerif-3d" transform="translate(922.126953 0)"/>
      <use xlink:href="#DejaVuSerif-20" transform="translate(1005.916016 0)"/>
      <use xlink:href="#DejaVuSerif-68" transform="translate(1037.703125 0)"/>
      <use xlink:href="#DejaVuSerif-69" transform="translate(1102.107422 0)"/>
      <use xlink:href="#DejaVuSerif-67" transform="translate(1134.089844 0)"/>
      <use xlink:href="#DejaVuSerif-68" transform="translate(1198.103516 0)"/>
      <use xlink:href="#DejaVuSerif-65" transform="translate(1262.507812 0)"/>
      <use xlink:href="#DejaVuSerif-73" transform="translate(1321.6875 0)"/>
      <use xlink:href="#DejaVuSerif-74" transform="translate(1373.005859 0)"/>
      <use xlink:href="#DejaVuSerif-20" transform="translate(1413.191406 0)"/>
      <use xlink:href="#DejaVuSerif-72" transform="translate(1444.978516 0)"/>
      <use xlink:href="#DejaVuSerif-69" transform="translate(1492.78125 0)"/>
      <use xlink:href="#DejaVuSerif-73" transform="translate(1524.763672 0)"/>
      <use xlink:href="#DejaVuSerif-6b" transform="translate(1576.082031 0)"/>
      <use xlink:href="#DejaVuSerif-29" transform="translate(1636.677734 0)"/>
     </g>
    </g>
   </g>
   <g id="line2d_12">
    <path d="M 86.212249 51.366806 
L 130.663771 51.366806 
" clip-path="url(#p4826ae5ebf)" style="fill: none; stroke: #000000; stroke-width: 1.2; stroke-linecap: square"/>
   </g>
   <g id="line2d_13">
    <path d="M 86.212249 40.608035 
L 130.663771 40.608035 
" clip-path="url(#p4826ae5ebf)" style="fill: none; stroke-dasharray: 3.7,1.6; stroke-dashoffset: 0; stroke: #000000"/>
   </g>
   <g id="line2d_14">
    <path d="M 86.212249 78.263733 
L 130.663771 78.263733 
" clip-path="url(#p4826ae5ebf)" style="fill: none; stroke-dasharray: 3.7,1.6; stroke-dashoffset: 0; stroke: #000000"/>
   </g>
   <g id="line2d_15">
    <path d="M 187.238436 67.504962 
L 231.689959 67.504962 
" clip-path="url(#p4826ae5ebf)" style="fill: none; stroke: #000000; stroke-width: 1.2; stroke-linecap: square"/>
   </g>
   <g id="line2d_16">
    <path d="M 187.238436 45.987421 
L 231.689959 45.987421 
" clip-path="url(#p4826ae5ebf)" style="fill: none; stroke-dasharray: 3.7,1.6; stroke-dashoffset: 0; stroke: #000000"/>
   </g>
   <g id="line2d_17">
    <path d="M 187.238436 94.401889 
L 231.689959 94.401889 
" clip-path="url(#p4826ae5ebf)" style="fill: none; stroke-dasharray: 3.7,1.6; stroke-dashoffset: 0; stroke: #000000"/>
   </g>
   <g id="line2d_18">
    <path d="M 288.264624 94.401889 
L 332.716146 94.401889 
" clip-path="url(#p4826ae5ebf)" style="fill: none; stroke: #000000; stroke-width: 1.2; stroke-linecap: square"/>
   </g>
   <g id="line2d_19">
    <path d="M 288.264624 67.504962 
L 332.716146 67.504962 
" clip-path="url(#p4826ae5ebf)" style="fill: none; stroke-dasharray: 3.7,1.6; stroke-dashoffset: 0; stroke: #000000"/>
   </g>
   <g id="line2d_20">
    <path d="M 288.264624 126.678201 
L 332.716146 126.678201 
" clip-path="url(#p4826ae5ebf)" style="fill: none; stroke-dasharray: 3.7,1.6; stroke-dashoffset: 0; stroke: #000000"/>
   </g>
   <g id="line2d_21">
    <path d="M 389.290811 142.816357 
L 433.742334 142.816357 
" clip-path="url(#p4826ae5ebf)" style="fill: none; stroke: #000000; stroke-width: 1.2; stroke-linecap: square"/>
   </g>
   <g id="line2d_22">
    <path d="M 389.290811 110.540045 
L 433.742334 110.540045 
" clip-path="url(#p4826ae5ebf)" style="fill: none; stroke-dasharray: 3.7,1.6; stroke-dashoffset: 0; stroke: #000000"/>
   </g>
   <g id="line2d_23">
    <path d="M 389.290811 175.092669 
L 433.742334 175.092669 
" clip-path="url(#p4826ae5ebf)" style="fill: none; stroke-dasharray: 3.7,1.6; stroke-dashoffset: 0; stroke: #000000"/>
   </g>
   <g id="line2d_24">
    <path d="M 490.316999 191.230826 
L 534.768521 191.230826 
" clip-path="url(#p4826ae5ebf)" style="fill: none; stroke: #000000; stroke-width: 1.2; stroke-linecap: square"/>
   </g>
   <g id="line2d_25">
    <path d="M 490.316999 158.954513 
L 534.768521 158.954513 
" clip-path="url(#p4826ae5ebf)" style="fill: none; stroke-dasharray: 3.7,1.6; stroke-dashoffset: 0; stroke: #000000"/>
   </g>
   <g id="line2d_26">
    <path d="M 490.316999 228.886523 
L 534.768521 228.886523 
" clip-path="url(#p4826ae5ebf)" style="fill: none; stroke-dasharray: 3.7,1.6; stroke-dashoffset: 0; stroke: #000000"/>
   </g>
   <g id="patch_3">
    <path d="M 43.78125 306.349673 
L 43.78125 22.318125 
" style="fill: none; stroke: #000000; stroke-width: 0.8; stroke-linejoin: miter; stroke-linecap: square"/>
   </g>
   <g id="patch_4">
    <path d="M 577.19952 306.349673 
L 577.19952 22.318125 
" style="fill: none; stroke: #000000; stroke-width: 0.8; stroke-linejoin: miter; stroke-linecap: square"/>
   </g>
   <g id="patch_5">
    <path d="M 43.78125 306.349672 
L 577.19952 306.349672 
" style="fill: none; stroke: #000000; stroke-width: 0.8; stroke-linejoin: miter; stroke-linecap: square"/>
   </g>
   <g id="patch_6">
    <path d="M 43.78125 22.318125 
L 577.19952 22.318125 
" style="fill: none; stroke: #000000; stroke-width: 0.8; stroke-linejoin: miter; stroke-linecap: square"/>
   </g>
   <g id="text_13">
    <!-- Figure 2 — Decision Stability Under Posterior Uncertainty (illustrative) -->
    <g transform="translate(92.915385 16.318125) scale(0.12 -0.12)">
     <defs>
      <path id="DejaVuSerif-46" d="M 353 0 
L 353 331 
L 947 331 
L 947 4331 
L 353 4331 
L 353 4666 
L 4172 4666 
L 4172 3628 
L 3788 3628 
L 3788 4281 
L 1581 4281 
L 1581 2719 
L 3175 2719 
L 3175 3303 
L 3559 3303 
L 3559 1753 
L 3175 1753 
L 3175 2338 
L 1581 2338 
L 1581 331 
L 2328 331 
L 2328 0 
L 353 0 
z
" transform="scale(0.015625)"/>
      <path id="DejaVuSerif-75" d="M 2266 3322 
L 3341 3322 
L 3341 331 
L 3884 331 
L 3884 0 
L 2766 0 
L 2766 588 
Q 2606 256 2353 82 
Q 2100 -91 1766 -91 
Q 1213 -91 952 223 
Q 691 538 691 1209 
L 691 2988 
L 172 2988 
L 172 3322 
L 1269 3322 
L 1269 1388 
Q 1269 781 1417 556 
Q 1566 331 1947 331 
Q 2347 331 2556 625 
Q 2766 919 2766 1478 
L 2766 2988 
L 2266 2988 
L 2266 3322 
z
" transform="scale(0.015625)"/>
      <path id="DejaVuSerif-2014" d="M 281 1906 
L 6119 1906 
L 6119 1491 
L 281 1491 
L 281 1906 
z
" transform="scale(0.015625)"/>
      <path id="DejaVuSerif-44" d="M 1581 331 
L 2163 331 
Q 3072 331 3558 850 
Q 4044 1369 4044 2338 
Q 4044 3306 3559 3818 
Q 3075 4331 2163 4331 
L 1581 4331 
L 1581 331 
z
M 353 0 
L 353 331 
L 947 331 
L 947 4331 
L 353 4331 
L 353 4666 
L 2209 4666 
Q 3416 4666 4089 4050 
Q 4763 3434 4763 2338 
Q 4763 1238 4088 619 
Q 3413 0 2209 0 
L 353 0 
z
" transform="scale(0.015625)"/>
      <path id="DejaVuSerif-63" d="M 3291 997 
Q 3169 466 2822 187 
Q 2475 -91 1925 -91 
Q 1200 -91 759 389 
Q 319 869 319 1663 
Q 319 2459 759 2936 
Q 1200 3413 1925 3413 
Q 2241 3413 2553 3339 
Q 2866 3266 3181 3116 
L 3181 2266 
L 2847 2266 
Q 2781 2703 2561 2903 
Q 2341 3103 1931 3103 
Q 1466 3103 1228 2742 
Q 991 2381 991 1663 
Q 991 944 1227 581 
Q 1463 219 1931 219 
Q 2303 219 2525 412 
Q 2747 606 2828 997 
L 3291 997 
z
" transform="scale(0.015625)"/>
      <path id="DejaVuSerif-53" d="M 594 225 
L 594 1288 
L 953 1284 
Q 969 753 1261 498 
Q 1553 244 2150 244 
Q 2706 244 2998 464 
Q 3291 684 3291 1106 
Q 3291 1444 3114 1625 
Q 2938 1806 2369 1978 
L 1753 2163 
Q 1084 2366 811 2669 
Q 538 2972 538 3500 
Q 538 4094 959 4422 
Q 1381 4750 2144 4750 
Q 2469 4750 2856 4679 
Q 3244 4609 3681 4475 
L 3681 3481 
L 3328 3481 
Q 3275 3975 2998 4195 
Q 2722 4416 2156 4416 
Q 1663 4416 1405 4214 
Q 1147 4013 1147 3628 
Q 1147 3294 1340 3103 
Q 1534 2913 2163 2725 
L 2741 2553 
Q 3375 2363 3645 2067 
Q 3916 1772 3916 1275 
Q 3916 597 3481 253 
Q 3047 -91 2188 -91 
Q 1803 -91 1404 -12 
Q 1006 66 594 225 
z
" transform="scale(0.015625)"/>
      <path id="DejaVuSerif-62" d="M 738 331 
L 738 4531 
L 184 4531 
L 184 4863 
L 1313 4863 
L 1313 2803 
Q 1481 3116 1742 3264 
Q 2003 3413 2388 3413 
Q 3000 3413 3387 2928 
Q 3775 2444 3775 1663 
Q 3775 881 3387 395 
Q 3000 -91 2388 -91 
Q 2003 -91 1742 57 
Q 1481 206 1313 519 
L 1313 0 
L 184 0 
L 184 331 
L 738 331 
z
M 1313 1497 
Q 1313 897 1542 583 
Q 1772 269 2209 269 
Q 2650 269 2876 622 
Q 3103 975 3103 1663 
Q 3103 2353 2876 2703 
Q 2650 3053 2209 3053 
Q 1772 3053 1542 2737 
Q 1313 2422 1313 1825 
L 1313 1497 
z
" transform="scale(0.015625)"/>
      <path id="DejaVuSerif-6c" d="M 1313 331 
L 1856 331 
L 1856 0 
L 184 0 
L 184 331 
L 738 331 
L 738 4531 
L 184 4531 
L 184 4863 
L 1313 4863 
L 1313 331 
z
" transform="scale(0.015625)"/>
      <path id="DejaVuSerif-79" d="M 1381 -609 
L 1600 -56 
L 359 2988 
L -19 2988 
L -19 3322 
L 1509 3322 
L 1509 2988 
L 978 2988 
L 1913 703 
L 2847 2988 
L 2350 2988 
L 2350 3322 
L 3597 3322 
L 3597 2988 
L 3225 2988 
L 1703 -750 
Q 1547 -1138 1356 -1280 
Q 1166 -1422 819 -1422 
Q 672 -1422 517 -1397 
Q 363 -1372 206 -1325 
L 206 -691 
L 500 -691 
Q 519 -903 608 -995 
Q 697 -1088 884 -1088 
Q 1056 -1088 1161 -992 
Q 1266 -897 1381 -609 
z
" transform="scale(0.015625)"/>
      <path id="DejaVuSerif-55" d="M 897 4331 
L 300 4331 
L 300 4666 
L 2125 4666 
L 2125 4331 
L 1528 4331 
L 1528 1919 
Q 1528 1025 1820 672 
Q 2113 319 2828 319 
Q 3544 319 3836 672 
Q 4128 1025 4128 1919 
L 4128 4331 
L 3531 4331 
L 3531 4666 
L 5106 4666 
L 5106 4331 
L 4513 4331 
L 4513 1856 
Q 4513 791 4103 350 
Q 3694 -91 2713 -91 
Q 1731 -91 1314 353 
Q 897 797 897 1856 
L 897 4331 
z
" transform="scale(0.015625)"/>
      <path id="DejaVuSerif-64" d="M 3359 331 
L 3909 331 
L 3909 0 
L 2784 0 
L 2784 519 
Q 2616 206 2355 57 
Q 2094 -91 1709 -91 
Q 1097 -91 708 395 
Q 319 881 319 1663 
Q 319 2444 706 2928 
Q 1094 3413 1709 3413 
Q 2094 3413 2355 3264 
Q 2616 3116 2784 2803 
L 2784 4531 
L 2241 4531 
L 2241 4863 
L 3359 4863 
L 3359 331 
z
M 2784 1497 
L 2784 1825 
Q 2784 2422 2554 2737 
Q 2325 3053 1888 3053 
Q 1444 3053 1217 2703 
Q 991 2353 991 1663 
Q 991 975 1217 622 
Q 1444 269 1888 269 
Q 2325 269 2554 583 
Q 2784 897 2784 1497 
z
" transform="scale(0.015625)"/>
      <path id="DejaVuSerif-76" d="M 1581 0 
L 359 2988 
L -19 2988 
L -19 3322 
L 1509 3322 
L 1509 2988 
L 978 2988 
L 1913 703 
L 2847 2988 
L 2350 2988 
L 2350 3322 
L 3597 3322 
L 3597 2988 
L 3225 2988 
L 2003 0 
L 1581 0 
z
" transform="scale(0.015625)"/>
     </defs>
     <use xlink:href="#DejaVuSerif-46"/>
     <use xlink:href="#DejaVuSerif-69" transform="translate(69.384766 0)"/>
     <use xlink:href="#DejaVuSerif-67" transform="translate(101.367188 0)"/>
     <use xlink:href="#DejaVuSerif-75" transform="translate(165.380859 0)"/>
     <use xlink:href="#DejaVuSerif-72" transform="translate(229.785156 0)"/>
     <use xlink:href="#DejaVuSerif-65" transform="translate(277.587891 0)"/>
     <use xlink:href="#DejaVuSerif-20" transform="translate(336.767578 0)"/>
     <use xlink:href="#DejaVuSerif-32" transform="translate(368.554688 0)"/>
     <use xlink:href="#DejaVuSerif-20" transform="translate(432.177734 0)"/>
     <use xlink:href="#DejaVuSerif-2014" transform="translate(463.964844 0)"/>
     <use xlink:href="#DejaVuSerif-20" transform="translate(563.964844 0)"/>
     <use xlink:href="#DejaVuSerif-44" transform="translate(595.751953 0)"/>
     <use xlink:href="#DejaVuSerif-65" transform="translate(675.927734 0)"/>
     <use xlink:href="#DejaVuSerif-63" transform="translate(735.107422 0)"/>
     <use xlink:href="#DejaVuSerif-69" transform="translate(791.113281 0)"/>
     <use xlink:href="#DejaVuSerif-73" transform="translate(823.095703 0)"/>
     <use xlink:href="#DejaVuSerif-69" transform="translate(874.414062 0)"/>
     <use xlink:href="#DejaVuSerif-6f" transform="translate(906.396484 0)"/>
     <use xlink:href="#DejaVuSerif-6e" transform="translate(966.601562 0)"/>
     <use xlink:href="#DejaVuSerif-20" transform="translate(1031.005859 0)"/>
     <use xlink:href="#DejaVuSerif-53" transform="translate(1062.792969 0)"/>
     <use xlink:href="#DejaVuSerif-74" transform="translate(1131.298828 0)"/>
     <use xlink:href="#DejaVuSerif-61" transform="translate(1171.484375 0)"/>
     <use xlink:href="#DejaVuSerif-62" transform="translate(1231.103516 0)"/>
     <use xlink:href="#DejaVuSerif-69" transform="translate(1295.117188 0)"/>
     <use xlink:href="#DejaVuSerif-6c" transform="translate(1327.099609 0)"/>
     <use xlink:href="#DejaVuSerif-69" transform="translate(1359.082031 0)"/>
     <use xlink:href="#DejaVuSerif-74" transform="translate(1391.064453 0)"/>
     <use xlink:href="#DejaVuSerif-79" transform="translate(1431.25 0)"/>
     <use xlink:href="#DejaVuSerif-20" transform="translate(1487.744141 0)"/>
     <use xlink:href="#DejaVuSerif-55" transform="translate(1519.53125 0)"/>
     <use xlink:href="#DejaVuSerif-6e" transform="translate(1603.808594 0)"/>
     <use xlink:href="#DejaVuSerif-64" transform="translate(1668.212891 0)"/>
     <use xlink:href="#DejaVuSerif-65" transform="translate(1732.226562 0)"/>
     <use xlink:href="#DejaVuSerif-72" transform="translate(1791.40625 0)"/>
     <use xlink:href="#DejaVuSerif-20" transform="translate(1839.208984 0)"/>
     <use xlink:href="#DejaVuSerif-50" transform="translate(1870.996094 0)"/>
     <use xlink:href="#DejaVuSerif-6f" transform="translate(1934.28125 0)"/>
     <use xlink:href="#DejaVuSerif-73" transform="translate(1994.486328 0)"/>
     <use xlink:href="#DejaVuSerif-74" transform="translate(2045.804688 0)"/>
     <use xlink:href="#DejaVuSerif-65" transform="translate(2085.990234 0)"/>
     <use xlink:href="#DejaVuSerif-72" transform="translate(2145.169922 0)"/>
     <use xlink:href="#DejaVuSerif-69" transform="translate(2192.972656 0)"/>
     <use xlink:href="#DejaVuSerif-6f" transform="translate(2224.955078 0)"/>
     <use xlink:href="#DejaVuSerif-72" transform="translate(2285.160156 0)"/>
     <use xlink:href="#DejaVuSerif-20" transform="translate(2332.962891 0)"/>
     <use xlink:href="#DejaVuSerif-55" transform="translate(2364.75 0)"/>
     <use xlink:href="#DejaVuSerif-6e" transform="translate(2449.027344 0)"/>
     <use xlink:href="#DejaVuSerif-63" transform="translate(2513.431641 0)"/>
     <use xlink:href="#DejaVuSerif-65" transform="translate(2569.4375 0)"/>
     <use xlink:href="#DejaVuSerif-72" transform="translate(2628.617188 0)"/>
     <use xlink:href="#DejaVuSerif-74" transform="translate(2676.419922 0)"/>
     <use xlink:href="#DejaVuSerif-61" transform="translate(2716.605469 0)"/>
     <use xlink:href="#DejaVuSerif-69" transform="translate(2776.224609 0)"/>
     <use xlink:href="#DejaVuSerif-6e" transform="translate(2808.207031 0)"/>
     <use xlink:href="#DejaVuSerif-74" transform="translate(2872.611328 0)"/>
     <use xlink:href="#DejaVuSerif-79" transform="translate(2912.796875 0)"/>
     <use xlink:href="#DejaVuSerif-20" transform="translate(2969.291016 0)"/>
     <use xlink:href="#DejaVuSerif-28" transform="translate(3001.078125 0)"/>
     <use xlink:href="#DejaVuSerif-69" transform="translate(3040.091797 0)"/>
     <use xlink:href="#DejaVuSerif-6c" transform="translate(3072.074219 0)"/>
     <use xlink:href="#DejaVuSerif-6c" transform="translate(3104.056641 0)"/>
     <use xlink:href="#DejaVuSerif-75" transform="translate(3136.039062 0)"/>
     <use xlink:href="#DejaVuSerif-73" transform="translate(3200.443359 0)"/>
     <use xlink:href="#DejaVuSerif-74" transform="translate(3251.761719 0)"/>
     <use xlink:href="#DejaVuSerif-72" transform="translate(3291.947266 0)"/>
     <use xlink:href="#DejaVuSerif-61" transform="translate(3339.75 0)"/>
     <use xlink:href="#DejaVuSerif-74" transform="translate(3399.369141 0)"/>
     <use xlink:href="#DejaVuSerif-69" transform="translate(3439.554688 0)"/>
     <use xlink:href="#DejaVuSerif-76" transform="translate(3471.537109 0)"/>
     <use xlink:href="#DejaVuSerif-65" transform="translate(3528.03125 0)"/>
     <use xlink:href="#DejaVuSerif-29" transform="translate(3587.210938 0)"/>
    </g>
   </g>
  </g>
  <g id="axes_2">
   <g id="patch_7">
    <path d="M 43.78125 474.84327 
L 577.19952 474.84327 
L 577.19952 332.827496 
L 43.78125 332.827496 
z
" style="fill: #ffffff"/>
   </g>
   <g id="patch_8">
    <path d="M 68.027535 474.84327 
L 107.613306 474.84327 
L 107.613306 390.769932 
L 68.027535 390.769932 
z
" clip-path="url(#pab91f84405)" style="fill: #ffffff; stroke: #000000; stroke-width: 1.1; stroke-linejoin: miter"/>
   </g>
   <g id="patch_9">
    <path d="M 117.509749 474.84327 
L 157.095521 474.84327 
L 157.095521 400.995068 
L 117.509749 400.995068 
z
" clip-path="url(#pab91f84405)" style="fill: #ffffff; stroke: #000000; stroke-width: 1.1; stroke-linejoin: miter"/>
   </g>
   <g id="patch_10">
    <path d="M 166.991964 474.84327 
L 206.577735 474.84327 
L 206.577735 403.125304 
L 166.991964 403.125304 
z
" clip-path="url(#pab91f84405)" style="fill: #ffffff; stroke: #000000; stroke-width: 1.1; stroke-linejoin: miter"/>
   </g>
   <g id="patch_11">
    <path d="M 216.474178 474.84327 
L 256.059949 474.84327 
L 256.059949 410.368109 
L 216.474178 410.368109 
z
" clip-path="url(#pab91f84405)" style="fill: #ffffff; stroke: #000000; stroke-width: 1.1; stroke-linejoin: miter"/>
   </g>
   <g id="patch_12">
    <path d="M 265.956392 474.84327 
L 305.542164 474.84327 
L 305.542164 419.74115 
L 265.956392 419.74115 
z
" clip-path="url(#pab91f84405)" style="fill: #ffffff; stroke: #000000; stroke-width: 1.1; stroke-linejoin: miter"/>
   </g>
   <g id="patch_13">
    <path d="M 315.438606 474.84327 
L 355.024378 474.84327 
L 355.024378 418.747039 
L 315.438606 418.747039 
z
" clip-path="url(#pab91f84405)" style="fill: #ffffff; stroke: #000000; stroke-width: 1.1; stroke-linejoin: miter"/>
   </g>
   <g id="patch_14">
    <path d="M 364.920821 474.84327 
L 404.506592 474.84327 
L 404.506592 425.989844 
L 364.920821 425.989844 
z
" clip-path="url(#pab91f84405)" style="fill: #ffffff; stroke: #000000; stroke-width: 1.1; stroke-linejoin: miter"/>
   </g>
   <g id="patch_15">
    <path d="M 414.403035 474.84327 
L 453.988806 474.84327 
L 453.988806 437.777153 
L 414.403035 437.777153 
z
" clip-path="url(#pab91f84405)" style="fill: #ffffff; stroke: #000000; stroke-width: 1.1; stroke-linejoin: miter"/>
   </g>
   <g id="patch_16">
    <path d="M 463.885249 474.84327 
L 503.471021 474.84327 
L 503.471021 436.783043 
L 463.885249 436.783043 
z
" clip-path="url(#pab91f84405)" style="fill: #ffffff; stroke: #000000; stroke-width: 1.1; stroke-linejoin: miter"/>
   </g>
   <g id="patch_17">
    <path d="M 513.367464 474.84327 
L 552.953235 474.84327 
L 552.953235 445.872052 
L 513.367464 445.872052 
z
" clip-path="url(#pab91f84405)" style="fill: #ffffff; stroke: #000000; stroke-width: 1.1; stroke-linejoin: miter"/>
   </g>
   <g id="matplotlib.axis_3">
    <g id="xtick_6">
     <g id="line2d_27">
      <g>
       <use xlink:href="#m96a005a0b3" x="87.820421" y="474.84327" style="stroke: #000000; stroke-width: 0.8"/>
      </g>
     </g>
     <g id="text_14">
      <!-- 0 -->
      <g transform="translate(84.639171 489.441708) scale(0.1 -0.1)">
       <use xlink:href="#DejaVuSerif-30"/>
      </g>
     </g>
    </g>
    <g id="xtick_7">
     <g id="line2d_28">
      <g>
       <use xlink:href="#m96a005a0b3" x="137.302635" y="474.84327" style="stroke: #000000; stroke-width: 0.8"/>
      </g>
     </g>
     <g id="text_15">
      <!-- 1 -->
      <g transform="translate(134.121385 489.441708) scale(0.1 -0.1)">
       <use xlink:href="#DejaVuSerif-31"/>
      </g>
     </g>
    </g>
    <g id="xtick_8">
     <g id="line2d_29">
      <g>
       <use xlink:href="#m96a005a0b3" x="186.784849" y="474.84327" style="stroke: #000000; stroke-width: 0.8"/>
      </g>
     </g>
     <g id="text_16">
      <!-- 2 -->
      <g transform="translate(183.603599 489.441708) scale(0.1 -0.1)">
       <use xlink:href="#DejaVuSerif-32"/>
      </g>
     </g>
    </g>
    <g id="xtick_9">
     <g id="line2d_30">
      <g>
       <use xlink:href="#m96a005a0b3" x="236.267064" y="474.84327" style="stroke: #000000; stroke-width: 0.8"/>
      </g>
     </g>
     <g id="text_17">
      <!-- 3 -->
      <g transform="translate(233.085814 489.441708) scale(0.1 -0.1)">
       <use xlink:href="#DejaVuSerif-33"/>
      </g>
     </g>
    </g>
    <g id="xtick_10">
     <g id="line2d_31">
      <g>
       <use xlink:href="#m96a005a0b3" x="285.749278" y="474.84327" style="stroke: #000000; stroke-width: 0.8"/>
      </g>
     </g>
     <g id="text_18">
      <!-- 4 -->
      <g transform="translate(282.568028 489.441708) scale(0.1 -0.1)">
       <use xlink:href="#DejaVuSerif-34"/>
      </g>
     </g>
    </g>
    <g id="xtick_11">
     <g id="line2d_32">
      <g>
       <use xlink:href="#m96a005a0b3" x="335.231492" y="474.84327" style="stroke: #000000; stroke-width: 0.8"/>
      </g>
     </g>
     <g id="text_19">
      <!-- 5 -->
      <g transform="translate(332.050242 489.441708) scale(0.1 -0.1)">
       <use xlink:href="#DejaVuSerif-35"/>
      </g>
     </g>
    </g>
    <g id="xtick_12">
     <g id="line2d_33">
      <g>
       <use xlink:href="#m96a005a0b3" x="384.713706" y="474.84327" style="stroke: #000000; stroke-width: 0.8"/>
      </g>
     </g>
     <g id="text_20">
      <!-- 6 -->
      <g transform="translate(381.532456 489.441708) scale(0.1 -0.1)">
       <defs>
        <path id="DejaVuSerif-36" d="M 2094 219 
Q 2534 219 2771 542 
Q 3009 866 3009 1472 
Q 3009 2078 2771 2401 
Q 2534 2725 2094 2725 
Q 1647 2725 1412 2412 
Q 1178 2100 1178 1509 
Q 1178 888 1415 553 
Q 1653 219 2094 219 
z
M 1075 2569 
Q 1288 2803 1556 2918 
Q 1825 3034 2163 3034 
Q 2859 3034 3264 2615 
Q 3669 2197 3669 1472 
Q 3669 763 3233 336 
Q 2797 -91 2069 -91 
Q 1278 -91 853 498 
Q 428 1088 428 2181 
Q 428 3406 931 4078 
Q 1434 4750 2350 4750 
Q 2597 4750 2869 4703 
Q 3141 4656 3425 4563 
L 3425 3794 
L 3072 3794 
Q 3034 4109 2831 4275 
Q 2628 4441 2284 4441 
Q 1678 4441 1381 3981 
Q 1084 3522 1075 2569 
z
" transform="scale(0.015625)"/>
       </defs>
       <use xlink:href="#DejaVuSerif-36"/>
      </g>
     </g>
    </g>
    <g id="xtick_13">
     <g id="line2d_34">
      <g>
       <use xlink:href="#m96a005a0b3" x="434.195921" y="474.84327" style="stroke: #000000; stroke-width: 0.8"/>
      </g>
     </g>
     <g id="text_21">
      <!-- 7 -->
      <g transform="translate(431.014671 489.441708) scale(0.1 -0.1)">
       <defs>
        <path id="DejaVuSerif-37" d="M 3609 4347 
L 1784 0 
L 1319 0 
L 3059 4153 
L 903 4153 
L 903 3578 
L 538 3578 
L 538 4666 
L 3609 4666 
L 3609 4347 
z
" transform="scale(0.015625)"/>
       </defs>
       <use xlink:href="#DejaVuSerif-37"/>
      </g>
     </g>
    </g>
    <g id="xtick_14">
     <g id="line2d_35">
      <g>
       <use xlink:href="#m96a005a0b3" x="483.678135" y="474.84327" style="stroke: #000000; stroke-width: 0.8"/>
      </g>
     </g>
     <g id="text_22">
      <!-- 8 -->
      <g transform="translate(480.496885 489.441708) scale(0.1 -0.1)">
       <defs>
        <path id="DejaVuSerif-38" d="M 2981 1275 
Q 2981 1775 2732 2051 
Q 2484 2328 2034 2328 
Q 1584 2328 1336 2051 
Q 1088 1775 1088 1275 
Q 1088 772 1336 495 
Q 1584 219 2034 219 
Q 2484 219 2732 495 
Q 2981 772 2981 1275 
z
M 2853 3541 
Q 2853 3966 2637 4203 
Q 2422 4441 2034 4441 
Q 1650 4441 1433 4203 
Q 1216 3966 1216 3541 
Q 1216 3113 1433 2875 
Q 1650 2638 2034 2638 
Q 2422 2638 2637 2875 
Q 2853 3113 2853 3541 
z
M 2516 2484 
Q 3047 2413 3344 2092 
Q 3641 1772 3641 1275 
Q 3641 619 3225 264 
Q 2809 -91 2034 -91 
Q 1263 -91 845 264 
Q 428 619 428 1275 
Q 428 1772 725 2092 
Q 1022 2413 1556 2484 
Q 1084 2569 832 2842 
Q 581 3116 581 3541 
Q 581 4103 968 4426 
Q 1356 4750 2034 4750 
Q 2713 4750 3100 4426 
Q 3488 4103 3488 3541 
Q 3488 3116 3236 2842 
Q 2984 2569 2516 2484 
z
" transform="scale(0.015625)"/>
       </defs>
       <use xlink:href="#DejaVuSerif-38"/>
      </g>
     </g>
    </g>
    <g id="xtick_15">
     <g id="line2d_36">
      <g>
       <use xlink:href="#m96a005a0b3" x="533.160349" y="474.84327" style="stroke: #000000; stroke-width: 0.8"/>
      </g>
     </g>
     <g id="text_23">
      <!-- 9 -->
      <g transform="translate(529.979099 489.441708) scale(0.1 -0.1)">
       <defs>
        <path id="DejaVuSerif-39" d="M 2994 2091 
Q 2784 1856 2512 1740 
Q 2241 1625 1900 1625 
Q 1206 1625 804 2044 
Q 403 2463 403 3188 
Q 403 3897 839 4323 
Q 1275 4750 2003 4750 
Q 2794 4750 3217 4161 
Q 3641 3572 3641 2478 
Q 3641 1253 3137 581 
Q 2634 -91 1722 -91 
Q 1475 -91 1203 -44 
Q 931 3 647 97 
L 647 872 
L 997 872 
Q 1038 556 1241 387 
Q 1444 219 1784 219 
Q 2391 219 2687 676 
Q 2984 1134 2994 2091 
z
M 1978 4441 
Q 1534 4441 1298 4117 
Q 1063 3794 1063 3188 
Q 1063 2581 1298 2256 
Q 1534 1931 1978 1931 
Q 2422 1931 2658 2245 
Q 2894 2559 2894 3150 
Q 2894 3772 2656 4106 
Q 2419 4441 1978 4441 
z
" transform="scale(0.015625)"/>
       </defs>
       <use xlink:href="#DejaVuSerif-39"/>
      </g>
     </g>
    </g>
    <g id="text_24">
     <!-- Asset index -->
     <g transform="translate(281.391166 503.119833) scale(0.1 -0.1)">
      <defs>
       <path id="DejaVuSerif-78" d="M 1863 2028 
L 2559 2988 
L 2113 2988 
L 2113 3322 
L 3391 3322 
L 3391 2988 
L 2950 2988 
L 2059 1759 
L 3097 331 
L 3531 331 
L 3531 0 
L 1997 0 
L 1997 331 
L 2419 331 
L 1697 1325 
L 972 331 
L 1403 331 
L 1403 0 
L 141 0 
L 141 331 
L 581 331 
L 1497 1594 
L 488 2988 
L 78 2988 
L 78 3322 
L 1563 3322 
L 1563 2988 
L 1166 2988 
L 1863 2028 
z
" transform="scale(0.015625)"/>
      </defs>
      <use xlink:href="#DejaVuSerif-41"/>
      <use xlink:href="#DejaVuSerif-73" transform="translate(72.216797 0)"/>
      <use xlink:href="#DejaVuSerif-73" transform="translate(123.535156 0)"/>
      <use xlink:href="#DejaVuSerif-65" transform="translate(174.853516 0)"/>
      <use xlink:href="#DejaVuSerif-74" transform="translate(234.033203 0)"/>
      <use xlink:href="#DejaVuSerif-20" transform="translate(274.21875 0)"/>
      <use xlink:href="#DejaVuSerif-69" transform="translate(306.005859 0)"/>
      <use xlink:href="#DejaVuSerif-6e" transform="translate(337.988281 0)"/>
      <use xlink:href="#DejaVuSerif-64" transform="translate(402.392578 0)"/>
      <use xlink:href="#DejaVuSerif-65" transform="translate(466.40625 0)"/>
      <use xlink:href="#DejaVuSerif-78" transform="translate(525.585938 0)"/>
     </g>
    </g>
   </g>
   <g id="matplotlib.axis_4">
    <g id="ytick_7">
     <g id="line2d_37">
      <g>
       <use xlink:href="#m2cffb91651" x="43.78125" y="474.84327" style="stroke: #000000; stroke-width: 0.8"/>
      </g>
     </g>
     <g id="text_25">
      <!-- 0.0 -->
      <g transform="translate(20.878125 478.642489) scale(0.1 -0.1)">
       <defs>
        <path id="DejaVuSerif-2e" d="M 603 325 
Q 603 500 722 622 
Q 841 744 1019 744 
Q 1191 744 1312 622 
Q 1434 500 1434 325 
Q 1434 153 1312 31 
Q 1191 -91 1019 -91 
Q 841 -91 722 29 
Q 603 150 603 325 
z
" transform="scale(0.015625)"/>
       </defs>
       <use xlink:href="#DejaVuSerif-30"/>
       <use xlink:href="#DejaVuSerif-2e" transform="translate(63.623047 0)"/>
       <use xlink:href="#DejaVuSerif-30" transform="translate(95.410156 0)"/>
      </g>
     </g>
    </g>
    <g id="ytick_8">
     <g id="line2d_38">
      <g>
       <use xlink:href="#m2cffb91651" x="43.78125" y="446.440115" style="stroke: #000000; stroke-width: 0.8"/>
      </g>
     </g>
     <g id="text_26">
      <!-- 0.2 -->
      <g transform="translate(20.878125 450.239334) scale(0.1 -0.1)">
       <use xlink:href="#DejaVuSerif-30"/>
       <use xlink:href="#DejaVuSerif-2e" transform="translate(63.623047 0)"/>
       <use xlink:href="#DejaVuSerif-32" transform="translate(95.410156 0)"/>
      </g>
     </g>
    </g>
    <g id="ytick_9">
     <g id="line2d_39">
      <g>
       <use xlink:href="#m2cffb91651" x="43.78125" y="418.036961" style="stroke: #000000; stroke-width: 0.8"/>
      </g>
     </g>
     <g id="text_27">
      <!-- 0.4 -->
      <g transform="translate(20.878125 421.836179) scale(0.1 -0.1)">
       <use xlink:href="#DejaVuSerif-30"/>
       <use xlink:href="#DejaVuSerif-2e" transform="translate(63.623047 0)"/>
       <use xlink:href="#DejaVuSerif-34" transform="translate(95.410156 0)"/>
      </g>
     </g>
    </g>
    <g id="ytick_10">
     <g id="line2d_40">
      <g>
       <use xlink:href="#m2cffb91651" x="43.78125" y="389.633806" style="stroke: #000000; stroke-width: 0.8"/>
      </g>
     </g>
     <g id="text_28">
      <!-- 0.6 -->
      <g transform="translate(20.878125 393.433024) scale(0.1 -0.1)">
       <use xlink:href="#DejaVuSerif-30"/>
       <use xlink:href="#DejaVuSerif-2e" transform="translate(63.623047 0)"/>
       <use xlink:href="#DejaVuSerif-36" transform="translate(95.410156 0)"/>
      </g>
     </g>
    </g>
    <g id="ytick_11">
     <g id="line2d_41">
      <g>
       <use xlink:href="#m2cffb91651" x="43.78125" y="361.230651" style="stroke: #000000; stroke-width: 0.8"/>
      </g>
     </g>
     <g id="text_29">
      <!-- 0.8 -->
      <g transform="translate(20.878125 365.02987) scale(0.1 -0.1)">
       <use xlink:href="#DejaVuSerif-30"/>
       <use xlink:href="#DejaVuSerif-2e" transform="translate(63.623047 0)"/>
       <use xlink:href="#DejaVuSerif-38" transform="translate(95.410156 0)"/>
      </g>
     </g>
    </g>
    <g id="ytick_12">
     <g id="line2d_42">
      <g>
       <use xlink:href="#m2cffb91651" x="43.78125" y="332.827496" style="stroke: #000000; stroke-width: 0.8"/>
      </g>
     </g>
     <g id="text_30">
      <!-- 1.0 -->
      <g transform="translate(20.878125 336.626715) scale(0.1 -0.1)">
       <use xlink:href="#DejaVuSerif-31"/>
       <use xlink:href="#DejaVuSerif-2e" transform="translate(63.623047 0)"/>
       <use xlink:href="#DejaVuSerif-30" transform="translate(95.410156 0)"/>
      </g>
     </g>
    </g>
    <g id="text_31">
     <!-- P(asset in Top 5) -->
     <g transform="translate(14.798438 446.108821) rotate(-90) scale(0.1 -0.1)">
      <defs>
       <path id="DejaVuSerif-54" d="M 1222 0 
L 1222 331 
L 1819 331 
L 1819 4294 
L 447 4294 
L 447 3566 
L 63 3566 
L 63 4666 
L 4206 4666 
L 4206 3566 
L 3822 3566 
L 3822 4294 
L 2450 4294 
L 2450 331 
L 3047 331 
L 3047 0 
L 1222 0 
z
" transform="scale(0.015625)"/>
       <path id="DejaVuSerif-70" d="M 1313 1825 
L 1313 1497 
Q 1313 897 1542 583 
Q 1772 269 2209 269 
Q 2650 269 2876 622 
Q 3103 975 3103 1663 
Q 3103 2353 2876 2703 
Q 2650 3053 2209 3053 
Q 1772 3053 1542 2737 
Q 1313 2422 1313 1825 
z
M 738 2988 
L 184 2988 
L 184 3322 
L 1313 3322 
L 1313 2803 
Q 1481 3116 1742 3264 
Q 2003 3413 2388 3413 
Q 3000 3413 3387 2928 
Q 3775 2444 3775 1663 
Q 3775 881 3387 395 
Q 3000 -91 2388 -91 
Q 2003 -91 1742 57 
Q 1481 206 1313 519 
L 1313 -997 
L 1856 -997 
L 1856 -1331 
L 184 -1331 
L 184 -997 
L 738 -997 
L 738 2988 
z
" transform="scale(0.015625)"/>
      </defs>
      <use xlink:href="#DejaVuSerif-50"/>
      <use xlink:href="#DejaVuSerif-28" transform="translate(67.285156 0)"/>
      <use xlink:href="#DejaVuSerif-61" transform="translate(106.298828 0)"/>
      <use xlink:href="#DejaVuSerif-73" transform="translate(165.917969 0)"/>
      <use xlink:href="#DejaVuSerif-73" transform="translate(217.236328 0)"/>
      <use xlink:href="#DejaVuSerif-65" transform="translate(268.554688 0)"/>
      <use xlink:href="#DejaVuSerif-74" transform="translate(327.734375 0)"/>
      <use xlink:href="#DejaVuSerif-20" transform="translate(367.919922 0)"/>
      <use xlink:href="#DejaVuSerif-69" transform="translate(399.707031 0)"/>
      <use xlink:href="#DejaVuSerif-6e" transform="translate(431.689453 0)"/>
      <use xlink:href="#DejaVuSerif-20" transform="translate(496.09375 0)"/>
      <use xlink:href="#DejaVuSerif-54" transform="translate(527.880859 0)"/>
      <use xlink:href="#DejaVuSerif-6f" transform="translate(586.830078 0)"/>
      <use xlink:href="#DejaVuSerif-70" transform="translate(647.035156 0)"/>
      <use xlink:href="#DejaVuSerif-20" transform="translate(711.048828 0)"/>
      <use xlink:href="#DejaVuSerif-35" transform="translate(742.835938 0)"/>
      <use xlink:href="#DejaVuSerif-29" transform="translate(806.458984 0)"/>
     </g>
    </g>
   </g>
   <g id="patch_18">
    <path d="M 43.78125 474.84327 
L 43.78125 332.827496 
" style="fill: none; stroke: #000000; stroke-width: 0.8; stroke-linejoin: miter; stroke-linecap: square"/>
   </g>
   <g id="patch_19">
    <path d="M 577.19952 474.84327 
L 577.19952 332.827496 
" style="fill: none; stroke: #000000; stroke-width: 0.8; stroke-linejoin: miter; stroke-linecap: square"/>
   </g>
   <g id="patch_20">
    <path d="M 43.78125 474.84327 
L 577.19952 474.84327 
" style="fill: none; stroke: #000000; stroke-width: 0.8; stroke-linejoin: miter; stroke-linecap: square"/>
   </g>
   <g id="patch_21">
    <path d="M 43.78125 332.827496 
L 577.19952 332.827496 
" style="fill: none; stroke: #000000; stroke-width: 0.8; stroke-linejoin: miter; stroke-linecap: square"/>
   </g>
  </g>
 </g>
 <defs>
  <clipPath id="p4826ae5ebf">
   <rect x="43.78125" y="22.318125" width="533.41827" height="284.031548"/>
  </clipPath>
  <clipPath id="pab91f84405">
   <rect x="43.78125" y="332.827496" width="533.41827" height="142.015774"/>
  </clipPath>
 </defs>
</svg>
