<?xml version="1.0" encoding="utf-8" standalone="no"?>
<!DOCTYPE svg PUBLIC "-//W3C//DTD SVG 1.1//EN"
  "http://www.w3.org/Graphics/SVG/1.1/DTD/svg11.dtd">
<svg xmlns:xlink="http://www.w3.org/1999/xlink" width="496.063257pt" height="279.907812pt" viewBox="0 0 496.063257 279.907812" xmlns="http://www.w3.org/2000/svg" version="1.1">
 <metadata>
  <rdf:RDF xmlns:dc="http://purl.org/dc/elements/1.1/" xmlns:cc="http://creativecommons.org/ns#" xmlns:rdf="http://www.w3.org/1999/02/22-rdf-syntax-ns#">
   <cc:Work>
    <dc:type rdf:resource="http://purl.org/dc/dcmitype/StillImage"/>
    <dc:date>2026-03-05T14:01:29.503879</dc:date>
    <dc:format>image/svg+xml</dc:format>
    <dc:creator>
     <cc:Agent>
      <dc:title>Matplotlib v3.10.8, https://matplotlib.org/</dc:title>
     </cc:Agent>
    </dc:creator>
   </cc:Work>
  </rdf:RDF>
 </metadata>
 <defs>
  <style type="text/css">*{stroke-linejoin: round; stroke-linecap: butt}</style>
 </defs>
 <g id="figure_1">
  <g id="patch_1">
   <path d="M 0 279.907812 
L 496.063257 279.907812 
L 496.063257 0 
L 0 0 
z
" style="fill: #ffffff"/>
  </g>
  <g id="axes_1">
   <g id="patch_2">
    <path d="M 43.78125 242.209375 
L 484.179892 242.209375 
L 484.179892 22.318125 
L 43.78125 22.318125 
z
" style="fill: #ffffff"/>
   </g>
   <g id="matplotlib.axis_1">
    <g id="xtick_1">
     <g id="line2d_1">
      <path d="M 63.46207 242.209375 
L 63.46207 22.318125 
" clip-path="url(#pb3add45694)" style="fill: none; stroke-dasharray: 1.85,0.8; stroke-dashoffset: 0; stroke: #b0b0b0; stroke-opacity: 0.5; stroke-width: 0.5"/>
     </g>
     <g id="line2d_2">
      <defs>
       <path id="m703269c46d" d="M 0 0 
L 0 3.5 
" style="stroke: #000000; stroke-width: 0.8"/>
      </defs>
      <g>
       <use xlink:href="#m703269c46d" x="63.46207" y="242.209375" style="stroke: #000000; stroke-width: 0.8"/>
      </g>
     </g>
     <g id="text_1">
      <!-- 0.0 -->
      <g transform="translate(55.510507 256.807812) scale(0.1 -0.1)">
       <defs>
        <path id="DejaVuSerif-30" d="M 2034 219 
Q 2513 219 2750 744 
Q 2988 1269 2988 2328 
Q 2988 3391 2750 3916 
Q 2513 4441 2034 4441 
Q 1556 4441 1318 3916 
Q 1081 3391 1081 2328 
Q 1081 1269 1318 744 
Q 1556 219 2034 219 
z
M 2034 -91 
Q 1275 -91 848 546 
Q 422 1184 422 2328 
Q 422 3475 848 4112 
Q 1275 4750 2034 4750 
Q 2797 4750 3222 4112 
Q 3647 3475 3647 2328 
Q 3647 1184 3222 546 
Q 2797 -91 2034 -91 
z
" transform="scale(0.015625)"/>
        <path id="DejaVuSerif-2e" d="M 603 325 
Q 603 500 722 622 
Q 841 744 1019 744 
Q 1191 744 1312 622 
Q 1434 500 1434 325 
Q 1434 153 1312 31 
Q 1191 -91 1019 -91 
Q 841 -91 722 29 
Q 603 150 603 325 
z
" transform="scale(0.015625)"/>
       </defs>
       <use xlink:href="#DejaVuSerif-30"/>
       <use xlink:href="#DejaVuSerif-2e" transform="translate(63.623047 0)"/>
       <use xlink:href="#DejaVuSerif-30" transform="translate(95.410156 0)"/>
      </g>
     </g>
    </g>
    <g id="xtick_2">
     <g id="line2d_3">
      <path d="M 115.643273 242.209375 
L 115.643273 22.318125 
" clip-path="url(#pb3add45694)" style="fill: none; stroke-dasharray: 1.85,0.8; stroke-dashoffset: 0; stroke: #b0b0b0; stroke-opacity: 0.5; stroke-width: 0.5"/>
     </g>
     <g id="line2d_4">
      <g>
       <use xlink:href="#m703269c46d" x="115.643273" y="242.209375" style="stroke: #000000; stroke-width: 0.8"/>
      </g>
     </g>
     <g id="text_2">
      <!-- 0.1 -->
      <g transform="translate(107.69171 256.807812) scale(0.1 -0.1)">
       <defs>
        <path id="DejaVuSerif-31" d="M 909 0 
L 909 331 
L 1722 331 
L 1722 4213 
L 781 3603 
L 781 4013 
L 1919 4750 
L 2350 4750 
L 2350 331 
L 3163 331 
L 3163 0 
L 909 0 
z
" transform="scale(0.015625)"/>
       </defs>
       <use xlink:href="#DejaVuSerif-30"/>
       <use xlink:href="#DejaVuSerif-2e" transform="translate(63.623047 0)"/>
       <use xlink:href="#DejaVuSerif-31" transform="translate(95.410156 0)"/>
      </g>
     </g>
    </g>
    <g id="xtick_3">
     <g id="line2d_5">
      <path d="M 167.824476 242.209375 
L 167.824476 22.318125 
" clip-path="url(#pb3add45694)" style="fill: none; stroke-dasharray: 1.85,0.8; stroke-dashoffset: 0; stroke: #b0b0b0; stroke-opacity: 0.5; stroke-width: 0.5"/>
     </g>
     <g id="line2d_6">
      <g>
       <use xlink:href="#m703269c46d" x="167.824476" y="242.209375" style="stroke: #000000; stroke-width: 0.8"/>
      </g>
     </g>
     <g id="text_3">
      <!-- 0.2 -->
      <g transform="translate(159.872913 256.807812) scale(0.1 -0.1)">
       <defs>
        <path id="DejaVuSerif-32" d="M 819 3553 
L 469 3553 
L 469 4384 
Q 803 4563 1142 4656 
Q 1481 4750 1806 4750 
Q 2534 4750 2956 4397 
Q 3378 4044 3378 3438 
Q 3378 2753 2422 1800 
Q 2347 1728 2309 1691 
L 1131 513 
L 3078 513 
L 3078 1088 
L 3444 1088 
L 3444 0 
L 434 0 
L 434 341 
L 1850 1753 
Q 2319 2222 2519 2614 
Q 2719 3006 2719 3438 
Q 2719 3909 2473 4175 
Q 2228 4441 1797 4441 
Q 1350 4441 1106 4219 
Q 863 3997 819 3553 
z
" transform="scale(0.015625)"/>
       </defs>
       <use xlink:href="#DejaVuSerif-30"/>
       <use xlink:href="#DejaVuSerif-2e" transform="translate(63.623047 0)"/>
       <use xlink:href="#DejaVuSerif-32" transform="translate(95.410156 0)"/>
      </g>
     </g>
    </g>
    <g id="xtick_4">
     <g id="line2d_7">
      <path d="M 220.005679 242.209375 
L 220.005679 22.318125 
" clip-path="url(#pb3add45694)" style="fill: none; stroke-dasharray: 1.85,0.8; stroke-dashoffset: 0; stroke: #b0b0b0; stroke-opacity: 0.5; stroke-width: 0.5"/>
     </g>
     <g id="line2d_8">
      <g>
       <use xlink:href="#m703269c46d" x="220.005679" y="242.209375" style="stroke: #000000; stroke-width: 0.8"/>
      </g>
     </g>
     <g id="text_4">
      <!-- 0.3 -->
      <g transform="translate(212.054116 256.807812) scale(0.1 -0.1)">
       <defs>
        <path id="DejaVuSerif-33" d="M 622 4469 
Q 988 4606 1323 4678 
Q 1659 4750 1953 4750 
Q 2638 4750 3022 4454 
Q 3406 4159 3406 3634 
Q 3406 3213 3140 2930 
Q 2875 2647 2388 2547 
Q 2963 2466 3280 2130 
Q 3597 1794 3597 1259 
Q 3597 606 3158 257 
Q 2719 -91 1894 -91 
Q 1528 -91 1179 -12 
Q 831 66 488 225 
L 488 1131 
L 838 1131 
Q 869 681 1141 450 
Q 1413 219 1906 219 
Q 2384 219 2661 495 
Q 2938 772 2938 1253 
Q 2938 1803 2653 2086 
Q 2369 2369 1819 2369 
L 1522 2369 
L 1522 2688 
L 1678 2688 
Q 2225 2688 2498 2914 
Q 2772 3141 2772 3597 
Q 2772 4006 2547 4223 
Q 2322 4441 1900 4441 
Q 1478 4441 1245 4241 
Q 1013 4041 972 3647 
L 622 3647 
L 622 4469 
z
" transform="scale(0.015625)"/>
       </defs>
       <use xlink:href="#DejaVuSerif-30"/>
       <use xlink:href="#DejaVuSerif-2e" transform="translate(63.623047 0)"/>
       <use xlink:href="#DejaVuSerif-33" transform="translate(95.410156 0)"/>
      </g>
     </g>
    </g>
    <g id="xtick_5">
     <g id="line2d_9">
      <path d="M 272.186882 242.209375 
L 272.186882 22.318125 
" clip-path="url(#pb3add45694)" style="fill: none; stroke-dasharray: 1.85,0.8; stroke-dashoffset: 0; stroke: #b0b0b0; stroke-opacity: 0.5; stroke-width: 0.5"/>
     </g>
     <g id="line2d_10">
      <g>
       <use xlink:href="#m703269c46d" x="272.186882" y="242.209375" style="stroke: #000000; stroke-width: 0.8"/>
      </g>
     </g>
     <g id="text_5">
      <!-- 0.4 -->
      <g transform="translate(264.235319 256.807812) scale(0.1 -0.1)">
       <defs>
        <path id="DejaVuSerif-34" d="M 2234 1581 
L 2234 4063 
L 641 1581 
L 2234 1581 
z
M 3609 0 
L 1484 0 
L 1484 331 
L 2234 331 
L 2234 1247 
L 197 1247 
L 197 1588 
L 2241 4750 
L 2859 4750 
L 2859 1581 
L 3750 1581 
L 3750 1247 
L 2859 1247 
L 2859 331 
L 3609 331 
L 3609 0 
z
" transform="scale(0.015625)"/>
       </defs>
       <use xlink:href="#DejaVuSerif-30"/>
       <use xlink:href="#DejaVuSerif-2e" transform="translate(63.623047 0)"/>
       <use xlink:href="#DejaVuSerif-34" transform="translate(95.410156 0)"/>
      </g>
     </g>
    </g>
    <g id="xtick_6">
     <g id="line2d_11">
      <path d="M 324.368085 242.209375 
L 324.368085 22.318125 
" clip-path="url(#pb3add45694)" style="fill: none; stroke-dasharray: 1.85,0.8; stroke-dashoffset: 0; stroke: #b0b0b0; stroke-opacity: 0.5; stroke-width: 0.5"/>
     </g>
     <g id="line2d_12">
      <g>
       <use xlink:href="#m703269c46d" x="324.368085" y="242.209375" style="stroke: #000000; stroke-width: 0.8"/>
      </g>
     </g>
     <g id="text_6">
      <!-- 0.5 -->
      <g transform="translate(316.416523 256.807812) scale(0.1 -0.1)">
       <defs>
        <path id="DejaVuSerif-35" d="M 3219 4666 
L 3219 4153 
L 1081 4153 
L 1081 2816 
Q 1244 2928 1461 2984 
Q 1678 3041 1947 3041 
Q 2703 3041 3140 2622 
Q 3578 2203 3578 1478 
Q 3578 738 3136 323 
Q 2694 -91 1894 -91 
Q 1572 -91 1234 -12 
Q 897 66 544 225 
L 544 1131 
L 897 1131 
Q 925 688 1179 453 
Q 1434 219 1894 219 
Q 2388 219 2653 544 
Q 2919 869 2919 1478 
Q 2919 2084 2655 2407 
Q 2391 2731 1894 2731 
Q 1613 2731 1398 2631 
Q 1184 2531 1019 2322 
L 750 2322 
L 750 4666 
L 3219 4666 
z
" transform="scale(0.015625)"/>
       </defs>
       <use xlink:href="#DejaVuSerif-30"/>
       <use xlink:href="#DejaVuSerif-2e" transform="translate(63.623047 0)"/>
       <use xlink:href="#DejaVuSerif-35" transform="translate(95.410156 0)"/>
      </g>
     </g>
    </g>
    <g id="xtick_7">
     <g id="line2d_13">
      <path d="M 376.549288 242.209375 
L 376.549288 22.318125 
" clip-path="url(#pb3add45694)" style="fill: none; stroke-dasharray: 1.85,0.8; stroke-dashoffset: 0; stroke: #b0b0b0; stroke-opacity: 0.5; stroke-width: 0.5"/>
     </g>
     <g id="line2d_14">
      <g>
       <use xlink:href="#m703269c46d" x="376.549288" y="242.209375" style="stroke: #000000; stroke-width: 0.8"/>
      </g>
     </g>
     <g id="text_7">
      <!-- 0.6 -->
      <g transform="translate(368.597726 256.807812) scale(0.1 -0.1)">
       <defs>
        <path id="DejaVuSerif-36" d="M 2094 219 
Q 2534 219 2771 542 
Q 3009 866 3009 1472 
Q 3009 2078 2771 2401 
Q 2534 2725 2094 2725 
Q 1647 2725 1412 2412 
Q 1178 2100 1178 1509 
Q 1178 888 1415 553 
Q 1653 219 2094 219 
z
M 1075 2569 
Q 1288 2803 1556 2918 
Q 1825 3034 2163 3034 
Q 2859 3034 3264 2615 
Q 3669 2197 3669 1472 
Q 3669 763 3233 336 
Q 2797 -91 2069 -91 
Q 1278 -91 853 498 
Q 428 1088 428 2181 
Q 428 3406 931 4078 
Q 1434 4750 2350 4750 
Q 2597 4750 2869 4703 
Q 3141 4656 3425 4563 
L 3425 3794 
L 3072 3794 
Q 3034 4109 2831 4275 
Q 2628 4441 2284 4441 
Q 1678 4441 1381 3981 
Q 1084 3522 1075 2569 
z
" transform="scale(0.015625)"/>
       </defs>
       <use xlink:href="#DejaVuSerif-30"/>
       <use xlink:href="#DejaVuSerif-2e" transform="translate(63.623047 0)"/>
       <use xlink:href="#DejaVuSerif-36" transform="translate(95.410156 0)"/>
      </g>
     </g>
    </g>
    <g id="xtick_8">
     <g id="line2d_15">
      <path d="M 428.730491 242.209375 
L 428.730491 22.318125 
" clip-path="url(#pb3add45694)" style="fill: none; stroke-dasharray: 1.85,0.8; stroke-dashoffset: 0; stroke: #b0b0b0; stroke-opacity: 0.5; stroke-width: 0.5"/>
     </g>
     <g id="line2d_16">
      <g>
       <use xlink:href="#m703269c46d" x="428.730491" y="242.209375" style="stroke: #000000; stroke-width: 0.8"/>
      </g>
     </g>
     <g id="text_8">
      <!-- 0.7 -->
      <g transform="translate(420.778929 256.807812) scale(0.1 -0.1)">
       <defs>
        <path id="DejaVuSerif-37" d="M 3609 4347 
L 1784 0 
L 1319 0 
L 3059 4153 
L 903 4153 
L 903 3578 
L 538 3578 
L 538 4666 
L 3609 4666 
L 3609 4347 
z
" transform="scale(0.015625)"/>
       </defs>
       <use xlink:href="#DejaVuSerif-30"/>
       <use xlink:href="#DejaVuSerif-2e" transform="translate(63.623047 0)"/>
       <use xlink:href="#DejaVuSerif-37" transform="translate(95.410156 0)"/>
      </g>
     </g>
    </g>
    <g id="xtick_9">
     <g id="line2d_17">
      <path d="M 480.911694 242.209375 
L 480.911694 22.318125 
" clip-path="url(#pb3add45694)" style="fill: none; stroke-dasharray: 1.85,0.8; stroke-dashoffset: 0; stroke: #b0b0b0; stroke-opacity: 0.5; stroke-width: 0.5"/>
     </g>
     <g id="line2d_18">
      <g>
       <use xlink:href="#m703269c46d" x="480.911694" y="242.209375" style="stroke: #000000; stroke-width: 0.8"/>
      </g>
     </g>
     <g id="text_9">
      <!-- 0.8 -->
      <g transform="translate(472.960132 256.807812) scale(0.1 -0.1)">
       <defs>
        <path id="DejaVuSerif-38" d="M 2981 1275 
Q 2981 1775 2732 2051 
Q 2484 2328 2034 2328 
Q 1584 2328 1336 2051 
Q 1088 1775 1088 1275 
Q 1088 772 1336 495 
Q 1584 219 2034 219 
Q 2484 219 2732 495 
Q 2981 772 2981 1275 
z
M 2853 3541 
Q 2853 3966 2637 4203 
Q 2422 4441 2034 4441 
Q 1650 4441 1433 4203 
Q 1216 3966 1216 3541 
Q 1216 3113 1433 2875 
Q 1650 2638 2034 2638 
Q 2422 2638 2637 2875 
Q 2853 3113 2853 3541 
z
M 2516 2484 
Q 3047 2413 3344 2092 
Q 3641 1772 3641 1275 
Q 3641 619 3225 264 
Q 2809 -91 2034 -91 
Q 1263 -91 845 264 
Q 428 619 428 1275 
Q 428 1772 725 2092 
Q 1022 2413 1556 2484 
Q 1084 2569 832 2842 
Q 581 3116 581 3541 
Q 581 4103 968 4426 
Q 1356 4750 2034 4750 
Q 2713 4750 3100 4426 
Q 3488 4103 3488 3541 
Q 3488 3116 3236 2842 
Q 2984 2569 2516 2484 
z
" transform="scale(0.015625)"/>
       </defs>
       <use xlink:href="#DejaVuSerif-30"/>
       <use xlink:href="#DejaVuSerif-2e" transform="translate(63.623047 0)"/>
       <use xlink:href="#DejaVuSerif-38" transform="translate(95.410156 0)"/>
      </g>
     </g>
    </g>
    <g id="text_10">
     <!-- Posterior mean probability -->
     <g transform="translate(196.186821 270.485937) scale(0.1 -0.1)">
      <defs>
       <path id="DejaVuSerif-50" d="M 1581 2375 
L 2406 2375 
Q 2872 2375 3115 2626 
Q 3359 2878 3359 3353 
Q 3359 3831 3115 4081 
Q 2872 4331 2406 4331 
L 1581 4331 
L 1581 2375 
z
M 353 0 
L 353 331 
L 947 331 
L 947 4331 
L 353 4331 
L 353 4666 
L 2559 4666 
Q 3259 4666 3668 4311 
Q 4078 3956 4078 3353 
Q 4078 2753 3668 2397 
Q 3259 2041 2559 2041 
L 1581 2041 
L 1581 331 
L 2303 331 
L 2303 0 
L 353 0 
z
" transform="scale(0.015625)"/>
       <path id="DejaVuSerif-6f" d="M 1925 219 
Q 2388 219 2623 584 
Q 2859 950 2859 1663 
Q 2859 2375 2623 2739 
Q 2388 3103 1925 3103 
Q 1463 3103 1227 2739 
Q 991 2375 991 1663 
Q 991 950 1228 584 
Q 1466 219 1925 219 
z
M 1925 -91 
Q 1200 -91 759 389 
Q 319 869 319 1663 
Q 319 2456 758 2934 
Q 1197 3413 1925 3413 
Q 2653 3413 3092 2934 
Q 3531 2456 3531 1663 
Q 3531 869 3092 389 
Q 2653 -91 1925 -91 
z
" transform="scale(0.015625)"/>
       <path id="DejaVuSerif-73" d="M 359 184 
L 359 959 
L 691 959 
Q 703 588 923 403 
Q 1144 219 1575 219 
Q 1963 219 2166 364 
Q 2369 509 2369 788 
Q 2369 1006 2220 1140 
Q 2072 1275 1594 1428 
L 1178 1569 
Q 750 1706 558 1912 
Q 366 2119 366 2438 
Q 366 2894 700 3153 
Q 1034 3413 1625 3413 
Q 1888 3413 2178 3344 
Q 2469 3275 2778 3144 
L 2778 2419 
L 2447 2419 
Q 2434 2741 2221 2922 
Q 2009 3103 1644 3103 
Q 1281 3103 1095 2975 
Q 909 2847 909 2591 
Q 909 2381 1050 2254 
Q 1191 2128 1613 1997 
L 2069 1856 
Q 2541 1709 2748 1489 
Q 2956 1269 2956 922 
Q 2956 450 2595 179 
Q 2234 -91 1600 -91 
Q 1278 -91 972 -22 
Q 666 47 359 184 
z
" transform="scale(0.015625)"/>
       <path id="DejaVuSerif-74" d="M 691 2988 
L 184 2988 
L 184 3322 
L 691 3322 
L 691 4353 
L 1269 4353 
L 1269 3322 
L 2350 3322 
L 2350 2988 
L 1269 2988 
L 1269 878 
Q 1269 456 1350 337 
Q 1431 219 1650 219 
Q 1875 219 1978 351 
Q 2081 484 2088 781 
L 2522 781 
Q 2497 328 2275 118 
Q 2053 -91 1600 -91 
Q 1103 -91 897 129 
Q 691 350 691 878 
L 691 2988 
z
" transform="scale(0.015625)"/>
       <path id="DejaVuSerif-65" d="M 3469 1600 
L 991 1600 
L 991 1575 
Q 991 903 1244 561 
Q 1497 219 1991 219 
Q 2369 219 2611 417 
Q 2853 616 2950 1006 
L 3413 1006 
Q 3275 459 2904 184 
Q 2534 -91 1931 -91 
Q 1203 -91 761 389 
Q 319 869 319 1663 
Q 319 2450 753 2931 
Q 1188 3413 1894 3413 
Q 2647 3413 3050 2948 
Q 3453 2484 3469 1600 
z
M 2791 1931 
Q 2772 2513 2545 2808 
Q 2319 3103 1894 3103 
Q 1497 3103 1269 2806 
Q 1041 2509 991 1931 
L 2791 1931 
z
" transform="scale(0.015625)"/>
       <path id="DejaVuSerif-72" d="M 3059 3328 
L 3059 2497 
L 2728 2497 
Q 2713 2744 2591 2866 
Q 2469 2988 2234 2988 
Q 1809 2988 1582 2694 
Q 1356 2400 1356 1850 
L 1356 331 
L 2022 331 
L 2022 0 
L 263 0 
L 263 331 
L 781 331 
L 781 2994 
L 231 2994 
L 231 3322 
L 1356 3322 
L 1356 2731 
Q 1525 3078 1790 3245 
Q 2056 3413 2438 3413 
Q 2578 3413 2733 3391 
Q 2888 3369 3059 3328 
z
" transform="scale(0.015625)"/>
       <path id="DejaVuSerif-69" d="M 622 4353 
Q 622 4497 726 4603 
Q 831 4709 978 4709 
Q 1122 4709 1226 4603 
Q 1331 4497 1331 4353 
Q 1331 4206 1228 4103 
Q 1125 4000 978 4000 
Q 831 4000 726 4103 
Q 622 4206 622 4353 
z
M 1356 331 
L 1900 331 
L 1900 0 
L 231 0 
L 231 331 
L 781 331 
L 781 2988 
L 231 2988 
L 231 3322 
L 1356 3322 
L 1356 331 
z
" transform="scale(0.015625)"/>
       <path id="DejaVuSerif-20" transform="scale(0.015625)"/>
       <path id="DejaVuSerif-6d" d="M 3316 2675 
Q 3481 3041 3739 3227 
Q 3997 3413 4341 3413 
Q 4863 3413 5119 3089 
Q 5375 2766 5375 2113 
L 5375 331 
L 5894 331 
L 5894 0 
L 4300 0 
L 4300 331 
L 4800 331 
L 4800 2047 
Q 4800 2556 4650 2772 
Q 4500 2988 4153 2988 
Q 3769 2988 3567 2697 
Q 3366 2406 3366 1850 
L 3366 331 
L 3866 331 
L 3866 0 
L 2291 0 
L 2291 331 
L 2791 331 
L 2791 2069 
Q 2791 2566 2641 2777 
Q 2491 2988 2144 2988 
Q 1759 2988 1557 2697 
Q 1356 2406 1356 1850 
L 1356 331 
L 1856 331 
L 1856 0 
L 263 0 
L 263 331 
L 781 331 
L 781 2994 
L 231 2994 
L 231 3322 
L 1356 3322 
L 1356 2731 
Q 1516 3063 1762 3238 
Q 2009 3413 2322 3413 
Q 2709 3413 2968 3220 
Q 3228 3028 3316 2675 
z
" transform="scale(0.015625)"/>
       <path id="DejaVuSerif-61" d="M 2547 1044 
L 2547 1747 
L 1806 1747 
Q 1378 1747 1168 1562 
Q 959 1378 959 997 
Q 959 650 1171 447 
Q 1384 244 1747 244 
Q 2106 244 2326 466 
Q 2547 688 2547 1044 
z
M 3122 2075 
L 3122 331 
L 3634 331 
L 3634 0 
L 2547 0 
L 2547 359 
Q 2356 128 2106 18 
Q 1856 -91 1522 -91 
Q 969 -91 644 203 
Q 319 497 319 997 
Q 319 1513 691 1797 
Q 1063 2081 1741 2081 
L 2547 2081 
L 2547 2309 
Q 2547 2688 2317 2895 
Q 2088 3103 1672 3103 
Q 1328 3103 1125 2947 
Q 922 2791 872 2484 
L 575 2484 
L 575 3156 
Q 875 3284 1158 3348 
Q 1441 3413 1709 3413 
Q 2400 3413 2761 3070 
Q 3122 2728 3122 2075 
z
" transform="scale(0.015625)"/>
       <path id="DejaVuSerif-6e" d="M 263 0 
L 263 331 
L 781 331 
L 781 2988 
L 231 2988 
L 231 3322 
L 1356 3322 
L 1356 2731 
Q 1516 3069 1770 3241 
Q 2025 3413 2363 3413 
Q 2913 3413 3172 3097 
Q 3431 2781 3431 2113 
L 3431 331 
L 3944 331 
L 3944 0 
L 2356 0 
L 2356 331 
L 2853 331 
L 2853 1931 
Q 2853 2541 2703 2767 
Q 2553 2994 2175 2994 
Q 1775 2994 1565 2701 
Q 1356 2409 1356 1850 
L 1356 331 
L 1856 331 
L 1856 0 
L 263 0 
z
" transform="scale(0.015625)"/>
       <path id="DejaVuSerif-70" d="M 1313 1825 
L 1313 1497 
Q 1313 897 1542 583 
Q 1772 269 2209 269 
Q 2650 269 2876 622 
Q 3103 975 3103 1663 
Q 3103 2353 2876 2703 
Q 2650 3053 2209 3053 
Q 1772 3053 1542 2737 
Q 1313 2422 1313 1825 
z
M 738 2988 
L 184 2988 
L 184 3322 
L 1313 3322 
L 1313 2803 
Q 1481 3116 1742 3264 
Q 2003 3413 2388 3413 
Q 3000 3413 3387 2928 
Q 3775 2444 3775 1663 
Q 3775 881 3387 395 
Q 3000 -91 2388 -91 
Q 2003 -91 1742 57 
Q 1481 206 1313 519 
L 1313 -997 
L 1856 -997 
L 1856 -1331 
L 184 -1331 
L 184 -997 
L 738 -997 
L 738 2988 
z
" transform="scale(0.015625)"/>
       <path id="DejaVuSerif-62" d="M 738 331 
L 738 4531 
L 184 4531 
L 184 4863 
L 1313 4863 
L 1313 2803 
Q 1481 3116 1742 3264 
Q 2003 3413 2388 3413 
Q 3000 3413 3387 2928 
Q 3775 2444 3775 1663 
Q 3775 881 3387 395 
Q 3000 -91 2388 -91 
Q 2003 -91 1742 57 
Q 1481 206 1313 519 
L 1313 0 
L 184 0 
L 184 331 
L 738 331 
z
M 1313 1497 
Q 1313 897 1542 583 
Q 1772 269 2209 269 
Q 2650 269 2876 622 
Q 3103 975 3103 1663 
Q 3103 2353 2876 2703 
Q 2650 3053 2209 3053 
Q 1772 3053 1542 2737 
Q 1313 2422 1313 1825 
L 1313 1497 
z
" transform="scale(0.015625)"/>
       <path id="DejaVuSerif-6c" d="M 1313 331 
L 1856 331 
L 1856 0 
L 184 0 
L 184 331 
L 738 331 
L 738 4531 
L 184 4531 
L 184 4863 
L 1313 4863 
L 1313 331 
z
" transform="scale(0.015625)"/>
       <path id="DejaVuSerif-79" d="M 1381 -609 
L 1600 -56 
L 359 2988 
L -19 2988 
L -19 3322 
L 1509 3322 
L 1509 2988 
L 978 2988 
L 1913 703 
L 2847 2988 
L 2350 2988 
L 2350 3322 
L 3597 3322 
L 3597 2988 
L 3225 2988 
L 1703 -750 
Q 1547 -1138 1356 -1280 
Q 1166 -1422 819 -1422 
Q 672 -1422 517 -1397 
Q 363 -1372 206 -1325 
L 206 -691 
L 500 -691 
Q 519 -903 608 -995 
Q 697 -1088 884 -1088 
Q 1056 -1088 1161 -992 
Q 1266 -897 1381 -609 
z
" transform="scale(0.015625)"/>
      </defs>
      <use xlink:href="#DejaVuSerif-50"/>
      <use xlink:href="#DejaVuSerif-6f" transform="translate(63.285156 0)"/>
      <use xlink:href="#DejaVuSerif-73" transform="translate(123.490234 0)"/>
      <use xlink:href="#DejaVuSerif-74" transform="translate(174.808594 0)"/>
      <use xlink:href="#DejaVuSerif-65" transform="translate(214.994141 0)"/>
      <use xlink:href="#DejaVuSerif-72" transform="translate(274.173828 0)"/>
      <use xlink:href="#DejaVuSerif-69" transform="translate(321.976562 0)"/>
      <use xlink:href="#DejaVuSerif-6f" transform="translate(353.958984 0)"/>
      <use xlink:href="#DejaVuSerif-72" transform="translate(414.164062 0)"/>
      <use xlink:href="#DejaVuSerif-20" transform="translate(461.966797 0)"/>
      <use xlink:href="#DejaVuSerif-6d" transform="translate(493.753906 0)"/>
      <use xlink:href="#DejaVuSerif-65" transform="translate(588.578125 0)"/>
      <use xlink:href="#DejaVuSerif-61" transform="translate(647.757812 0)"/>
      <use xlink:href="#DejaVuSerif-6e" transform="translate(707.376953 0)"/>
      <use xlink:href="#DejaVuSerif-20" transform="translate(771.78125 0)"/>
      <use xlink:href="#DejaVuSerif-70" transform="translate(803.568359 0)"/>
      <use xlink:href="#DejaVuSerif-72" transform="translate(867.582031 0)"/>
      <use xlink:href="#DejaVuSerif-6f" transform="translate(915.384766 0)"/>
      <use xlink:href="#DejaVuSerif-62" transform="translate(975.589844 0)"/>
      <use xlink:href="#DejaVuSerif-61" transform="translate(1039.603516 0)"/>
      <use xlink:href="#DejaVuSerif-62" transform="translate(1099.222656 0)"/>
      <use xlink:href="#DejaVuSerif-69" transform="translate(1163.236328 0)"/>
      <use xlink:href="#DejaVuSerif-6c" transform="translate(1195.21875 0)"/>
      <use xlink:href="#DejaVuSerif-69" transform="translate(1227.201172 0)"/>
      <use xlink:href="#DejaVuSerif-74" transform="translate(1259.183594 0)"/>
      <use xlink:href="#DejaVuSerif-79" transform="translate(1299.369141 0)"/>
     </g>
    </g>
   </g>
   <g id="matplotlib.axis_2">
    <g id="ytick_1">
     <g id="line2d_19">
      <path d="M 43.78125 232.215221 
L 484.179892 232.215221 
" clip-path="url(#pb3add45694)" style="fill: none; stroke-dasharray: 1.85,0.8; stroke-dashoffset: 0; stroke: #b0b0b0; stroke-opacity: 0.5; stroke-width: 0.5"/>
     </g>
     <g id="line2d_20">
      <defs>
       <path id="m9e219dbf0d" d="M 0 0 
L -3.5 0 
" style="stroke: #000000; stroke-width: 0.8"/>
      </defs>
      <g>
       <use xlink:href="#m9e219dbf0d" x="43.78125" y="232.215221" style="stroke: #000000; stroke-width: 0.8"/>
      </g>
     </g>
     <g id="text_11">
      <!-- 0.0 -->
      <g transform="translate(20.878125 236.01444) scale(0.1 -0.1)">
       <use xlink:href="#DejaVuSerif-30"/>
       <use xlink:href="#DejaVuSerif-2e" transform="translate(63.623047 0)"/>
       <use xlink:href="#DejaVuSerif-30" transform="translate(95.410156 0)"/>
      </g>
     </g>
    </g>
    <g id="ytick_2">
     <g id="line2d_21">
      <path d="M 43.78125 192.234813 
L 484.179892 192.234813 
" clip-path="url(#pb3add45694)" style="fill: none; stroke-dasharray: 1.85,0.8; stroke-dashoffset: 0; stroke: #b0b0b0; stroke-opacity: 0.5; stroke-width: 0.5"/>
     </g>
     <g id="line2d_22">
      <g>
       <use xlink:href="#m9e219dbf0d" x="43.78125" y="192.234813" style="stroke: #000000; stroke-width: 0.8"/>
      </g>
     </g>
     <g id="text_12">
      <!-- 0.2 -->
      <g transform="translate(20.878125 196.034032) scale(0.1 -0.1)">
       <use xlink:href="#DejaVuSerif-30"/>
       <use xlink:href="#DejaVuSerif-2e" transform="translate(63.623047 0)"/>
       <use xlink:href="#DejaVuSerif-32" transform="translate(95.410156 0)"/>
      </g>
     </g>
    </g>
    <g id="ytick_3">
     <g id="line2d_23">
      <path d="M 43.78125 152.254406 
L 484.179892 152.254406 
" clip-path="url(#pb3add45694)" style="fill: none; stroke-dasharray: 1.85,0.8; stroke-dashoffset: 0; stroke: #b0b0b0; stroke-opacity: 0.5; stroke-width: 0.5"/>
     </g>
     <g id="line2d_24">
      <g>
       <use xlink:href="#m9e219dbf0d" x="43.78125" y="152.254406" style="stroke: #000000; stroke-width: 0.8"/>
      </g>
     </g>
     <g id="text_13">
      <!-- 0.4 -->
      <g transform="translate(20.878125 156.053624) scale(0.1 -0.1)">
       <use xlink:href="#DejaVuSerif-30"/>
       <use xlink:href="#DejaVuSerif-2e" transform="translate(63.623047 0)"/>
       <use xlink:href="#DejaVuSerif-34" transform="translate(95.410156 0)"/>
      </g>
     </g>
    </g>
    <g id="ytick_4">
     <g id="line2d_25">
      <path d="M 43.78125 112.273998 
L 484.179892 112.273998 
" clip-path="url(#pb3add45694)" style="fill: none; stroke-dasharray: 1.85,0.8; stroke-dashoffset: 0; stroke: #b0b0b0; stroke-opacity: 0.5; stroke-width: 0.5"/>
     </g>
     <g id="line2d_26">
      <g>
       <use xlink:href="#m9e219dbf0d" x="43.78125" y="112.273998" style="stroke: #000000; stroke-width: 0.8"/>
      </g>
     </g>
     <g id="text_14">
      <!-- 0.6 -->
      <g transform="translate(20.878125 116.073216) scale(0.1 -0.1)">
       <use xlink:href="#DejaVuSerif-30"/>
       <use xlink:href="#DejaVuSerif-2e" transform="translate(63.623047 0)"/>
       <use xlink:href="#DejaVuSerif-36" transform="translate(95.410156 0)"/>
      </g>
     </g>
    </g>
    <g id="ytick_5">
     <g id="line2d_27">
      <path d="M 43.78125 72.29359 
L 484.179892 72.29359 
" clip-path="url(#pb3add45694)" style="fill: none; stroke-dasharray: 1.85,0.8; stroke-dashoffset: 0; stroke: #b0b0b0; stroke-opacity: 0.5; stroke-width: 0.5"/>
     </g>
     <g id="line2d_28">
      <g>
       <use xlink:href="#m9e219dbf0d" x="43.78125" y="72.29359" style="stroke: #000000; stroke-width: 0.8"/>
      </g>
     </g>
     <g id="text_15">
      <!-- 0.8 -->
      <g transform="translate(20.878125 76.092808) scale(0.1 -0.1)">
       <use xlink:href="#DejaVuSerif-30"/>
       <use xlink:href="#DejaVuSerif-2e" transform="translate(63.623047 0)"/>
       <use xlink:href="#DejaVuSerif-38" transform="translate(95.410156 0)"/>
      </g>
     </g>
    </g>
    <g id="ytick_6">
     <g id="line2d_29">
      <path d="M 43.78125 32.313182 
L 484.179892 32.313182 
" clip-path="url(#pb3add45694)" style="fill: none; stroke-dasharray: 1.85,0.8; stroke-dashoffset: 0; stroke: #b0b0b0; stroke-opacity: 0.5; stroke-width: 0.5"/>
     </g>
     <g id="line2d_30">
      <g>
       <use xlink:href="#m9e219dbf0d" x="43.78125" y="32.313182" style="stroke: #000000; stroke-width: 0.8"/>
      </g>
     </g>
     <g id="text_16">
      <!-- 1.0 -->
      <g transform="translate(20.878125 36.112401) scale(0.1 -0.1)">
       <use xlink:href="#DejaVuSerif-31"/>
       <use xlink:href="#DejaVuSerif-2e" transform="translate(63.623047 0)"/>
       <use xlink:href="#DejaVuSerif-30" transform="translate(95.410156 0)"/>
      </g>
     </g>
    </g>
    <g id="text_17">
     <!-- ECDF -->
     <g transform="translate(14.798438 147.217656) rotate(-90) scale(0.1 -0.1)">
      <defs>
       <path id="DejaVuSerif-45" d="M 353 0 
L 353 331 
L 947 331 
L 947 4331 
L 353 4331 
L 353 4666 
L 4109 4666 
L 4109 3628 
L 3725 3628 
L 3725 4281 
L 1581 4281 
L 1581 2719 
L 3109 2719 
L 3109 3303 
L 3494 3303 
L 3494 1753 
L 3109 1753 
L 3109 2338 
L 1581 2338 
L 1581 384 
L 3775 384 
L 3775 1038 
L 4159 1038 
L 4159 0 
L 353 0 
z
" transform="scale(0.015625)"/>
       <path id="DejaVuSerif-43" d="M 4513 1234 
Q 4306 581 3820 245 
Q 3334 -91 2591 -91 
Q 2134 -91 1743 65 
Q 1353 222 1050 525 
Q 700 875 529 1320 
Q 359 1766 359 2328 
Q 359 3416 987 4083 
Q 1616 4750 2644 4750 
Q 3025 4750 3456 4650 
Q 3888 4550 4384 4347 
L 4384 3272 
L 4031 3272 
Q 3916 3859 3567 4137 
Q 3219 4416 2591 4416 
Q 1844 4416 1459 3886 
Q 1075 3356 1075 2328 
Q 1075 1303 1459 773 
Q 1844 244 2591 244 
Q 3113 244 3450 492 
Q 3788 741 3938 1234 
L 4513 1234 
z
" transform="scale(0.015625)"/>
       <path id="DejaVuSerif-44" d="M 1581 331 
L 2163 331 
Q 3072 331 3558 850 
Q 4044 1369 4044 2338 
Q 4044 3306 3559 3818 
Q 3075 4331 2163 4331 
L 1581 4331 
L 1581 331 
z
M 353 0 
L 353 331 
L 947 331 
L 947 4331 
L 353 4331 
L 353 4666 
L 2209 4666 
Q 3416 4666 4089 4050 
Q 4763 3434 4763 2338 
Q 4763 1238 4088 619 
Q 3413 0 2209 0 
L 353 0 
z
" transform="scale(0.015625)"/>
       <path id="DejaVuSerif-46" d="M 353 0 
L 353 331 
L 947 331 
L 947 4331 
L 353 4331 
L 353 4666 
L 4172 4666 
L 4172 3628 
L 3788 3628 
L 3788 4281 
L 1581 4281 
L 1581 2719 
L 3175 2719 
L 3175 3303 
L 3559 3303 
L 3559 1753 
L 3175 1753 
L 3175 2338 
L 1581 2338 
L 1581 331 
L 2328 331 
L 2328 0 
L 353 0 
z
" transform="scale(0.015625)"/>
      </defs>
      <use xlink:href="#DejaVuSerif-45"/>
      <use xlink:href="#DejaVuSerif-43" transform="translate(72.998047 0)"/>
      <use xlink:href="#DejaVuSerif-44" transform="translate(149.511719 0)"/>
      <use xlink:href="#DejaVuSerif-46" transform="translate(229.6875 0)"/>
     </g>
    </g>
   </g>
   <g id="line2d_31">
    <path d="M 63.79937 232.214318 
L 63.83578 232.023741 
L 64.115412 228.671026 
L 64.325741 227.899684 
L 64.48852 227.374919 
L 65.038331 227.251179 
L 65.45498 226.533128 
L 65.707606 224.479228 
L 65.767361 223.972527 
L 65.915246 222.213978 
L 65.949697 221.812952 
L 66.144165 219.787956 
L 66.256302 218.770038 
L 66.470169 217.171356 
L 66.510409 216.917554 
L 67.43036 210.257284 
L 69.079313 206.550511 
L 69.203292 206.18742 
L 69.475626 205.470271 
L 69.620149 205.175825 
L 69.732394 204.887701 
L 69.817702 204.727833 
L 70.140355 203.822817 
L 70.211721 203.536499 
L 70.726581 200.988544 
L 70.967978 199.908305 
L 71.161862 199.033094 
L 71.28279 198.425234 
L 72.133607 194.705815 
L 72.175811 194.527883 
L 72.724705 192.055797 
L 72.806075 191.717997 
L 72.919469 191.288972 
L 73.166958 190.340602 
L 73.34755 189.658678 
L 73.401948 189.482552 
L 73.520586 189.076108 
L 73.690299 188.564891 
L 73.8221 188.213542 
L 73.947711 187.893806 
L 74.294348 186.846985 
L 74.410314 186.473057 
L 74.593845 186.024161 
L 74.668292 185.857971 
L 75.99991 182.993892 
L 76.125308 182.768993 
L 76.240781 182.550416 
L 77.795907 180.22736 
L 77.981009 179.931107 
L 78.128257 179.685434 
L 78.481982 178.942995 
L 78.618185 178.636807 
L 79.010775 177.832047 
L 79.141243 177.582761 
L 79.262728 177.310895 
L 79.413081 176.996578 
L 79.884 176.015692 
L 79.960067 175.845888 
L 80.393399 174.807197 
L 80.541838 174.436881 
L 80.713247 173.946438 
L 80.806618 173.687216 
L 85.504596 155.940044 
L 85.573243 155.710629 
L 85.716417 155.211154 
L 85.867931 154.734259 
L 86.037363 154.135431 
L 86.15647 153.691051 
L 86.319064 153.133771 
L 86.397319 152.880872 
L 87.061251 150.658072 
L 87.111233 150.470205 
L 87.250478 149.984278 
L 87.329381 149.694347 
L 88.056748 146.855558 
L 88.21206 146.194409 
L 88.705024 144.020382 
L 88.94952 142.898596 
L 89.019034 142.586085 
L 89.140823 142.019772 
L 89.265777 141.47604 
L 89.410376 140.820309 
L 89.470728 140.555669 
L 89.742379 139.432979 
L 90.070105 138.25429 
L 90.306862 137.389015 
L 90.468587 136.846186 
L 90.632289 136.342195 
L 90.716238 136.092005 
L 91.04455 135.1337 
L 91.096454 134.969315 
L 91.221659 134.617064 
L 91.307579 134.380423 
L 91.665607 133.293861 
L 91.779465 132.96148 
L 92.754522 130.283462 
L 93.606266 128.150983 
L 93.711641 127.887246 
L 93.877385 127.455512 
L 94.03557 127.040035 
L 94.247617 126.484561 
L 94.332422 126.287661 
L 94.474111 125.945345 
L 94.747757 125.276066 
L 94.942719 124.806397 
L 95.03292 124.569756 
L 95.1928 124.197634 
L 95.778027 122.844625 
L 95.928337 122.510437 
L 96.158349 121.97935 
L 96.276562 121.742709 
L 96.349707 121.577421 
L 96.462726 121.329942 
L 96.969361 120.205446 
L 97.194935 119.693325 
L 97.332209 119.401589 
L 97.472046 119.112561 
L 97.800787 118.408058 
L 97.912514 118.141611 
L 97.973296 118.005226 
L 98.104859 117.71078 
L 98.286684 117.31427 
L 98.368145 117.151693 
L 98.583611 116.738926 
L 100.996471 112.155135 
L 101.080727 111.983525 
L 101.379353 111.440696 
L 101.480922 111.261861 
L 101.657378 110.909609 
L 102.361809 109.597245 
L 102.513593 109.303701 
L 102.620321 109.104092 
L 102.746608 108.870161 
L 104.644583 104.921327 
L 104.762286 104.665718 
L 105.298775 103.461739 
L 105.37923 103.276581 
L 111.289249 89.957847 
L 111.369016 89.806108 
L 111.508976 89.501726 
L 111.655084 89.242505 
L 111.840104 88.887544 
L 116.170172 81.547156 
L 116.361669 81.228323 
L 116.734941 80.680978 
L 116.849157 80.523819 
L 116.962537 80.345887 
L 117.158766 80.060473 
L 117.72415 79.262938 
L 117.85595 79.091328 
L 118.0645 78.801398 
L 118.200662 78.610821 
L 118.4437 78.310955 
L 118.812015 77.861157 
L 122.140546 74.12548 
L 122.352451 73.936709 
L 122.526134 73.764196 
L 123.803048 72.469896 
L 124.00792 72.257642 
L 124.578525 71.73378 
L 124.747578 71.571202 
L 125.178432 71.186435 
L 125.378218 71.025664 
L 125.667486 70.779087 
L 125.85664 70.604768 
L 126.66727 69.847878 
L 126.828602 69.698848 
L 126.960663 69.571496 
L 127.156593 69.42066 
L 127.673332 68.995248 
L 127.967787 68.760413 
L 128.118497 68.63306 
L 128.419545 68.381065 
L 129.03853 67.871654 
L 129.188949 67.753334 
L 129.375121 67.612433 
L 129.576656 67.440823 
L 129.69773 67.347793 
L 129.918239 67.17257 
L 130.162929 66.934123 
L 130.368221 66.772448 
L 130.566056 66.617999 
L 130.767848 66.468066 
L 130.94657 66.338004 
L 131.183384 66.161878 
L 131.822158 65.647952 
L 132.01266 65.48989 
L 132.496435 65.087961 
L 132.686401 64.956093 
L 132.893823 64.788999 
L 133.084178 64.639969 
L 136.492085 62.088401 
L 137.177217 61.541959 
L 137.937975 60.898874 
L 138.234295 60.663136 
L 139.758088 59.353481 
L 139.924743 59.205355 
L 140.27641 58.90007 
L 140.553921 58.67788 
L 140.912579 58.409627 
L 141.604211 57.879443 
L 142.164032 57.474805 
L 142.44554 57.269776 
L 142.56306 57.174036 
L 142.78332 57.02049 
L 142.897652 56.946427 
L 143.151432 56.766688 
L 143.269505 56.675464 
L 143.485566 56.539079 
L 143.610131 56.4605 
L 143.825196 56.309664 
L 149.005662 53.003012 
L 149.265818 52.864821 
L 149.39211 52.782629 
L 149.708764 52.611019 
L 151.167039 51.796324 
L 151.459052 51.624714 
L 151.571355 51.560586 
L 152.136595 51.269752 
L 152.33859 51.150529 
L 152.676292 50.980725 
L 152.817513 50.904855 
L 153.097108 50.764858 
L 153.226556 50.670924 
L 155.744157 49.512106 
L 156.176815 49.328754 
L 156.294445 49.281787 
L 156.684469 49.118306 
L 156.803949 49.060501 
L 157.184044 48.872633 
L 160.081009 47.631623 
L 160.620472 47.435626 
L 160.814715 47.363369 
L 161.30111 47.188147 
L 161.499232 47.123115 
L 162.23045 46.857572 
L 165.803224 45.512692 
L 166.097912 45.400694 
L 167.788787 44.814511 
L 169.446049 44.320455 
L 169.807264 44.225618 
L 171.387858 43.755949 
L 171.514375 43.714401 
L 172.242872 43.512985 
L 172.395398 43.473244 
L 173.043502 43.297118 
L 176.354829 42.491455 
L 177.260524 42.277394 
L 177.482463 42.220492 
L 178.315915 42.033527 
L 178.629544 41.969399 
L 179.557578 41.798693 
L 181.305215 41.442828 
L 182.021387 41.293798 
L 184.71079 40.72297 
L 184.885065 40.700389 
L 186.741071 40.397814 
L 187.903874 40.219882 
L 188.056182 40.194592 
L 189.823803 39.920919 
L 189.938415 39.893823 
L 197.517422 39.06287 
L 199.214401 38.928292 
L 200.156882 38.853325 
L 202.501709 38.6492 
L 204.50203 38.52275 
L 206.684907 38.366495 
L 209.53605 38.175014 
L 212.475105 37.98805 
L 272.797363 34.719333 
L 277.792925 34.509788 
L 277.968685 34.503466 
L 281.52887 34.370694 
L 282.213652 34.344501 
L 285.788845 34.161149 
L 292.661329 33.826058 
L 297.107871 33.64632 
L 298.490467 33.589417 
L 300.532092 33.51987 
L 307.126925 33.257036 
L 308.401004 33.216392 
L 340.539664 32.661821 
L 408.014127 32.343891 
L 464.161772 32.313182 
L 464.161772 32.313182 
" clip-path="url(#pb3add45694)" style="fill: none; stroke: #000000; stroke-width: 1.5; stroke-linecap: square"/>
   </g>
   <g id="patch_3">
    <path d="M 43.78125 242.209375 
L 43.78125 22.318125 
" style="fill: none; stroke: #000000; stroke-width: 0.8; stroke-linejoin: miter; stroke-linecap: square"/>
   </g>
   <g id="patch_4">
    <path d="M 484.179892 242.209375 
L 484.179892 22.318125 
" style="fill: none; stroke: #000000; stroke-width: 0.8; stroke-linejoin: miter; stroke-linecap: square"/>
   </g>
   <g id="patch_5">
    <path d="M 43.78125 242.209375 
L 484.179892 242.209375 
" style="fill: none; stroke: #000000; stroke-width: 0.8; stroke-linejoin: miter; stroke-linecap: square"/>
   </g>
   <g id="patch_6">
    <path d="M 43.78125 22.318125 
L 484.179892 22.318125 
" style="fill: none; stroke: #000000; stroke-width: 0.8; stroke-linejoin: miter; stroke-linecap: square"/>
   </g>
   <g id="text_18">
    <!-- Figure 4 — ECDF of Citywide Posterior Mean Probabilities -->
    <g transform="translate(84.817758 16.318125) scale(0.12 -0.12)">
     <defs>
      <path id="DejaVuSerif-67" d="M 3359 2988 
L 3359 72 
Q 3359 -644 2965 -1033 
Q 2572 -1422 1844 -1422 
Q 1516 -1422 1216 -1362 
Q 916 -1303 641 -1184 
L 641 -488 
L 941 -488 
Q 997 -813 1206 -963 
Q 1416 -1113 1806 -1113 
Q 2313 -1113 2548 -827 
Q 2784 -541 2784 72 
L 2784 519 
Q 2616 206 2355 57 
Q 2094 -91 1709 -91 
Q 1097 -91 708 395 
Q 319 881 319 1663 
Q 319 2444 706 2928 
Q 1094 3413 1709 3413 
Q 2094 3413 2355 3264 
Q 2616 3116 2784 2803 
L 2784 3322 
L 3909 3322 
L 3909 2988 
L 3359 2988 
z
M 2784 1825 
Q 2784 2422 2554 2737 
Q 2325 3053 1888 3053 
Q 1444 3053 1217 2703 
Q 991 2353 991 1663 
Q 991 975 1217 622 
Q 1444 269 1888 269 
Q 2325 269 2554 583 
Q 2784 897 2784 1497 
L 2784 1825 
z
" transform="scale(0.015625)"/>
      <path id="DejaVuSerif-75" d="M 2266 3322 
L 3341 3322 
L 3341 331 
L 3884 331 
L 3884 0 
L 2766 0 
L 2766 588 
Q 2606 256 2353 82 
Q 2100 -91 1766 -91 
Q 1213 -91 952 223 
Q 691 538 691 1209 
L 691 2988 
L 172 2988 
L 172 3322 
L 1269 3322 
L 1269 1388 
Q 1269 781 1417 556 
Q 1566 331 1947 331 
Q 2347 331 2556 625 
Q 2766 919 2766 1478 
L 2766 2988 
L 2266 2988 
L 2266 3322 
z
" transform="scale(0.015625)"/>
      <path id="DejaVuSerif-2014" d="M 281 1906 
L 6119 1906 
L 6119 1491 
L 281 1491 
L 281 1906 
z
" transform="scale(0.015625)"/>
      <path id="DejaVuSerif-66" d="M 2753 4078 
L 2450 4078 
Q 2447 4313 2317 4434 
Q 2188 4556 1941 4556 
Q 1619 4556 1487 4379 
Q 1356 4203 1356 3750 
L 1356 3322 
L 2284 3322 
L 2284 2988 
L 1356 2988 
L 1356 331 
L 2094 331 
L 2094 0 
L 231 0 
L 231 331 
L 781 331 
L 781 2988 
L 231 2988 
L 231 3322 
L 781 3322 
L 781 3738 
Q 781 4294 1070 4578 
Q 1359 4863 1919 4863 
Q 2128 4863 2337 4825 
Q 2547 4788 2753 4709 
L 2753 4078 
z
" transform="scale(0.015625)"/>
      <path id="DejaVuSerif-77" d="M 3072 3322 
L 3922 728 
L 4672 2988 
L 4191 2988 
L 4191 3322 
L 5394 3322 
L 5394 2988 
L 5025 2988 
L 4038 0 
L 3559 0 
L 2741 2484 
L 1919 0 
L 1459 0 
L 475 2988 
L 103 2988 
L 103 3322 
L 1606 3322 
L 1606 2988 
L 1069 2988 
L 1813 728 
L 2669 3322 
L 3072 3322 
z
" transform="scale(0.015625)"/>
      <path id="DejaVuSerif-64" d="M 3359 331 
L 3909 331 
L 3909 0 
L 2784 0 
L 2784 519 
Q 2616 206 2355 57 
Q 2094 -91 1709 -91 
Q 1097 -91 708 395 
Q 319 881 319 1663 
Q 319 2444 706 2928 
Q 1094 3413 1709 3413 
Q 2094 3413 2355 3264 
Q 2616 3116 2784 2803 
L 2784 4531 
L 2241 4531 
L 2241 4863 
L 3359 4863 
L 3359 331 
z
M 2784 1497 
L 2784 1825 
Q 2784 2422 2554 2737 
Q 2325 3053 1888 3053 
Q 1444 3053 1217 2703 
Q 991 2353 991 1663 
Q 991 975 1217 622 
Q 1444 269 1888 269 
Q 2325 269 2554 583 
Q 2784 897 2784 1497 
z
" transform="scale(0.015625)"/>
      <path id="DejaVuSerif-4d" d="M 353 0 
L 353 331 
L 947 331 
L 947 4331 
L 319 4331 
L 319 4666 
L 1678 4666 
L 3316 1344 
L 4953 4666 
L 6228 4666 
L 6228 4331 
L 5606 4331 
L 5606 331 
L 6203 331 
L 6203 0 
L 4378 0 
L 4378 331 
L 4972 331 
L 4972 3938 
L 3372 684 
L 2931 684 
L 1331 3938 
L 1331 331 
L 1925 331 
L 1925 0 
L 353 0 
z
" transform="scale(0.015625)"/>
     </defs>
     <use xlink:href="#DejaVuSerif-46"/>
     <use xlink:href="#DejaVuSerif-69" transform="translate(69.384766 0)"/>
     <use xlink:href="#DejaVuSerif-67" transform="translate(101.367188 0)"/>
     <use xlink:href="#DejaVuSerif-75" transform="translate(165.380859 0)"/>
     <use xlink:href="#DejaVuSerif-72" transform="translate(229.785156 0)"/>
     <use xlink:href="#DejaVuSerif-65" transform="translate(277.587891 0)"/>
     <use xlink:href="#DejaVuSerif-20" transform="translate(336.767578 0)"/>
     <use xlink:href="#DejaVuSerif-34" transform="translate(368.554688 0)"/>
     <use xlink:href="#DejaVuSerif-20" transform="translate(432.177734 0)"/>
     <use xlink:href="#DejaVuSerif-2014" transform="translate(463.964844 0)"/>
     <use xlink:href="#DejaVuSerif-20" transform="translate(563.964844 0)"/>
     <use xlink:href="#DejaVuSerif-45" transform="translate(595.751953 0)"/>
     <use xlink:href="#DejaVuSerif-43" transform="translate(668.75 0)"/>
     <use xlink:href="#DejaVuSerif-44" transform="translate(745.263672 0)"/>
     <use xlink:href="#DejaVuSerif-46" transform="translate(825.439453 0)"/>
     <use xlink:href="#DejaVuSerif-20" transform="translate(894.824219 0)"/>
     <use xlink:href="#DejaVuSerif-6f" transform="translate(926.611328 0)"/>
     <use xlink:href="#DejaVuSerif-66" transform="translate(986.816406 0)"/>
     <use xlink:href="#DejaVuSerif-20" transform="translate(1023.828125 0)"/>
     <use xlink:href="#DejaVuSerif-43" transform="translate(1055.615234 0)"/>
     <use xlink:href="#DejaVuSerif-69" transform="translate(1132.128906 0)"/>
     <use xlink:href="#DejaVuSerif-74" transform="translate(1164.111328 0)"/>
     <use xlink:href="#DejaVuSerif-79" transform="translate(1204.296875 0)"/>
     <use xlink:href="#DejaVuSerif-77" transform="translate(1260.791016 0)"/>
     <use xlink:href="#DejaVuSerif-69" transform="translate(1346.386719 0)"/>
     <use xlink:href="#DejaVuSerif-64" transform="translate(1378.369141 0)"/>
     <use xlink:href="#DejaVuSerif-65" transform="translate(1442.382812 0)"/>
     <use xlink:href="#DejaVuSerif-20" transform="translate(1501.5625 0)"/>
     <use xlink:href="#DejaVuSerif-50" transform="translate(1533.349609 0)"/>
     <use xlink:href="#DejaVuSerif-6f" transform="translate(1596.634766 0)"/>
     <use xlink:href="#DejaVuSerif-73" transform="translate(1656.839844 0)"/>
     <use xlink:href="#DejaVuSerif-74" transform="translate(1708.158203 0)"/>
     <use xlink:href="#DejaVuSerif-65" transform="translate(1748.34375 0)"/>
     <use xlink:href="#DejaVuSerif-72" transform="translate(1807.523438 0)"/>
     <use xlink:href="#DejaVuSerif-69" transform="translate(1855.326172 0)"/>
     <use xlink:href="#DejaVuSerif-6f" transform="translate(1887.308594 0)"/>
     <use xlink:href="#DejaVuSerif-72" transform="translate(1947.513672 0)"/>
     <use xlink:href="#DejaVuSerif-20" transform="translate(1995.316406 0)"/>
     <use xlink:href="#DejaVuSerif-4d" transform="translate(2027.103516 0)"/>
     <use xlink:href="#DejaVuSerif-65" transform="translate(2129.496094 0)"/>
     <use xlink:href="#DejaVuSerif-61" transform="translate(2188.675781 0)"/>
     <use xlink:href="#DejaVuSerif-6e" transform="translate(2248.294922 0)"/>
     <use xlink:href="#DejaVuSerif-20" transform="translate(2312.699219 0)"/>
     <use xlink:href="#DejaVuSerif-50" transform="translate(2344.486328 0)"/>
     <use xlink:href="#DejaVuSerif-72" transform="translate(2411.771484 0)"/>
     <use xlink:href="#DejaVuSerif-6f" transform="translate(2459.574219 0)"/>
     <use xlink:href="#DejaVuSerif-62" transform="translate(2519.779297 0)"/>
     <use xlink:href="#DejaVuSerif-61" transform="translate(2583.792969 0)"/>
     <use xlink:href="#DejaVuSerif-62" transform="translate(2643.412109 0)"/>
     <use xlink:href="#DejaVuSerif-69" transform="translate(2707.425781 0)"/>
     <use xlink:href="#DejaVuSerif-6c" transform="translate(2739.408203 0)"/>
     <use xlink:href="#DejaVuSerif-69" transform="translate(2771.390625 0)"/>
     <use xlink:href="#DejaVuSerif-74" transform="translate(2803.373047 0)"/>
     <use xlink:href="#DejaVuSerif-69" transform="translate(2843.558594 0)"/>
     <use xlink:href="#DejaVuSerif-65" transform="translate(2875.541016 0)"/>
     <use xlink:href="#DejaVuSerif-73" transform="translate(2934.720703 0)"/>
    </g>
   </g>
  </g>
 </g>
 <defs>
  <clipPath id="pb3add45694">
   <rect x="43.78125" y="22.318125" width="440.398642" height="219.89125"/>
  </clipPath>
 </defs>
</svg>
